STARTFONT 2.1
FONT -Adobe-Courier-Medium-O-Normal--12-120-75-75-M-70-ISO10646-1
SIZE 12 75 75
FONTBOUNDINGBOX 14 19 -4 -5
COMMENT $Xorg: $
COMMENT ISO10646-1 extension by Markus Kuhn <mkuhn@acm.org>, 2001-03-20
COMMENT 
COMMENT +
COMMENT  Copyright 1984-1989, 1994 Adobe Systems Incorporated.
COMMENT  Copyright 1988, 1994 Digital Equipment Corporation.
COMMENT
COMMENT  Adobe is a trademark of Adobe Systems Incorporated which may be
COMMENT  registered in certain jurisdictions.
COMMENT  Permission to use these trademarks is hereby granted only in
COMMENT  association with the images described in this file.
COMMENT
COMMENT  Permission to use, copy, modify, distribute and sell this software
COMMENT  and its documentation for any purpose and without fee is hereby
COMMENT  granted, provided that the above copyright notices appear in all
COMMENT  copies and that both those copyright notices and this permission
COMMENT  notice appear in supporting documentation, and that the names of
COMMENT  Adobe Systems and Digital Equipment Corporation not be used in
COMMENT  advertising or publicity pertaining to distribution of the software
COMMENT  without specific, written prior permission.  Adobe Systems and
COMMENT  Digital Equipment Corporation make no representations about the
COMMENT  suitability of this software for any purpose.  It is provided "as
COMMENT  is" without express or implied warranty.
COMMENT -
STARTPROPERTIES 26
FOUNDRY "Adobe"
FAMILY_NAME "Courier"
WEIGHT_NAME "Medium"
SLANT "O"
SETWIDTH_NAME "Normal"
ADD_STYLE_NAME ""
PIXEL_SIZE 12
POINT_SIZE 120
RESOLUTION_X 75
RESOLUTION_Y 75
SPACING "M"
AVERAGE_WIDTH 70
CHARSET_REGISTRY "ISO10646"
CHARSET_ENCODING "1"
CAP_HEIGHT 8
X_HEIGHT 6
FONT_ASCENT 10
FONT_DESCENT 3
FACE_NAME "Courier Oblique"
COPYRIGHT "Copyright (c) 1984, 1987 Adobe Systems Incorporated. All Rights Reserved. Copyright (c) 1988, 1991 Digital Equipment Corporation. All Rights Reserved."
NOTICE "No mark"
_DEC_DEVICE_FONTNAMES "PS=Courier-Oblique"

STARTCHAR char0
ENCODING 0
SWIDTH 600 0
DWIDTH 7 0
BBX 9 7 -1 0
BITMAP
AA80
0000
8080
0000
8080
0000
AA80
ENDCHAR
STARTCHAR space
ENCODING 32
SWIDTH 600 0
DWIDTH 7 0
BBX 1 1 0 0
BITMAP
00
ENDCHAR
STARTCHAR exclam
ENCODING 33
SWIDTH 600 0
DWIDTH 7 0
BBX 3 8 2 0
BITMAP
20
20
40
40
40
80
00
80
ENDCHAR
STARTCHAR quotedbl
ENCODING 34
SWIDTH 600 0
DWIDTH 7 0
BBX 4 3 2 5
BITMAP
50
50
A0
ENDCHAR
STARTCHAR numbersign
ENCODING 35
SWIDTH 600 0
DWIDTH 7 0
BBX 7 8 0 0
BITMAP
14
14
7E
28
28
FC
50
50
ENDCHAR
STARTCHAR dollar
ENCODING 36
SWIDTH 600 0
DWIDTH 7 0
BBX 6 11 0 -1
BITMAP
08
08
3C
44
24
10
88
88
70
20
20
ENDCHAR
STARTCHAR percent
ENCODING 37
SWIDTH 600 0
DWIDTH 7 0
BBX 6 8 1 0
BITMAP
60
A0
C4
18
60
98
28
30
ENDCHAR
STARTCHAR ampersand
ENCODING 38
SWIDTH 600 0
DWIDTH 7 0
BBX 6 8 0 0
BITMAP
18
24
20
20
54
88
98
64
ENDCHAR
STARTCHAR quotesingle
ENCODING 39
SWIDTH 600 0
DWIDTH 7 0
BBX 2 3 4 5
BITMAP
40
40
80
ENDCHAR
STARTCHAR parenleft
ENCODING 40
SWIDTH 600 0
DWIDTH 7 0
BBX 5 11 1 -2
BITMAP
08
10
20
20
40
40
80
80
80
80
40
ENDCHAR
STARTCHAR parenright
ENCODING 41
SWIDTH 600 0
DWIDTH 7 0
BBX 5 11 0 -2
BITMAP
10
08
08
08
08
10
10
20
20
40
80
ENDCHAR
STARTCHAR asterisk
ENCODING 42
SWIDTH 600 0
DWIDTH 7 0
BBX 4 5 2 3
BITMAP
20
20
F0
40
A0
ENDCHAR
STARTCHAR plus
ENCODING 43
SWIDTH 600 0
DWIDTH 7 0
BBX 4 5 1 1
BITMAP
20
20
F0
40
40
ENDCHAR
STARTCHAR comma
ENCODING 44
SWIDTH 600 0
DWIDTH 7 0
BBX 2 3 1 -1
BITMAP
40
40
80
ENDCHAR
STARTCHAR hyphen
ENCODING 45
SWIDTH 600 0
DWIDTH 7 0
BBX 4 1 1 3
BITMAP
F0
ENDCHAR
STARTCHAR period
ENCODING 46
SWIDTH 600 0
DWIDTH 7 0
BBX 1 1 2 0
BITMAP
80
ENDCHAR
STARTCHAR slash
ENCODING 47
SWIDTH 600 0
DWIDTH 7 0
BBX 7 9 0 -1
BITMAP
02
04
08
08
10
20
20
40
80
ENDCHAR
STARTCHAR zero
ENCODING 48
SWIDTH 600 0
DWIDTH 7 0
BBX 5 9 1 0
BITMAP
30
48
48
88
88
88
90
90
60
ENDCHAR
STARTCHAR one
ENCODING 49
SWIDTH 600 0
DWIDTH 7 0
BBX 5 9 0 0
BITMAP
08
38
10
10
10
20
20
20
F8
ENDCHAR
STARTCHAR two
ENCODING 50
SWIDTH 600 0
DWIDTH 7 0
BBX 6 9 0 0
BITMAP
38
44
04
08
10
20
40
88
F8
ENDCHAR
STARTCHAR three
ENCODING 51
SWIDTH 600 0
DWIDTH 7 0
BBX 6 9 0 0
BITMAP
38
44
04
04
38
08
08
88
70
ENDCHAR
STARTCHAR four
ENCODING 52
SWIDTH 600 0
DWIDTH 7 0
BBX 6 9 0 0
BITMAP
04
0C
14
24
48
88
FC
10
38
ENDCHAR
STARTCHAR five
ENCODING 53
SWIDTH 600 0
DWIDTH 7 0
BBX 6 9 0 0
BITMAP
3C
20
40
78
04
04
04
88
70
ENDCHAR
STARTCHAR six
ENCODING 54
SWIDTH 600 0
DWIDTH 7 0
BBX 6 9 1 0
BITMAP
0C
30
40
40
B8
C4
84
88
70
ENDCHAR
STARTCHAR seven
ENCODING 55
SWIDTH 600 0
DWIDTH 7 0
BBX 5 9 2 0
BITMAP
F8
88
10
10
20
20
40
40
80
ENDCHAR
STARTCHAR eight
ENCODING 56
SWIDTH 600 0
DWIDTH 7 0
BBX 6 9 0 0
BITMAP
18
24
44
44
38
44
84
88
70
ENDCHAR
STARTCHAR nine
ENCODING 57
SWIDTH 600 0
DWIDTH 7 0
BBX 6 9 0 0
BITMAP
38
44
44
44
4C
34
08
10
E0
ENDCHAR
STARTCHAR colon
ENCODING 58
SWIDTH 600 0
DWIDTH 7 0
BBX 2 5 2 0
BITMAP
40
00
00
00
80
ENDCHAR
STARTCHAR semicolon
ENCODING 59
SWIDTH 600 0
DWIDTH 7 0
BBX 3 6 1 -1
BITMAP
20
00
00
40
40
80
ENDCHAR
STARTCHAR less
ENCODING 60
SWIDTH 600 0
DWIDTH 7 0
BBX 4 7 1 0
BITMAP
10
20
40
80
80
40
20
ENDCHAR
STARTCHAR equal
ENCODING 61
SWIDTH 600 0
DWIDTH 7 0
BBX 6 3 0 2
BITMAP
7C
00
F8
ENDCHAR
STARTCHAR greater
ENCODING 62
SWIDTH 600 0
DWIDTH 7 0
BBX 4 7 1 0
BITMAP
40
20
10
10
20
40
80
ENDCHAR
STARTCHAR question
ENCODING 63
SWIDTH 600 0
DWIDTH 7 0
BBX 5 8 2 0
BITMAP
70
88
08
30
40
40
00
80
ENDCHAR
STARTCHAR at
ENCODING 64
SWIDTH 600 0
DWIDTH 7 0
BBX 6 8 0 0
BITMAP
38
44
9C
A4
A8
98
C0
78
ENDCHAR
STARTCHAR A
ENCODING 65
SWIDTH 600 0
DWIDTH 7 0
BBX 8 8 -1 0
BITMAP
1E
06
0A
12
1E
22
42
E7
ENDCHAR
STARTCHAR B
ENCODING 66
SWIDTH 600 0
DWIDTH 7 0
BBX 8 8 -1 0
BITMAP
3E
11
22
3C
22
42
44
F8
ENDCHAR
STARTCHAR C
ENCODING 67
SWIDTH 600 0
DWIDTH 7 0
BBX 7 8 0 0
BITMAP
1E
22
40
40
80
80
8C
70
ENDCHAR
STARTCHAR D
ENCODING 68
SWIDTH 600 0
DWIDTH 7 0
BBX 8 8 -1 0
BITMAP
3E
11
21
21
22
42
44
F8
ENDCHAR
STARTCHAR E
ENCODING 69
SWIDTH 600 0
DWIDTH 7 0
BBX 8 8 0 0
BITMAP
3F
11
24
38
28
40
44
FC
ENDCHAR
STARTCHAR F
ENCODING 70
SWIDTH 600 0
DWIDTH 7 0
BBX 8 8 0 0
BITMAP
3F
11
24
38
28
40
40
F0
ENDCHAR
STARTCHAR G
ENCODING 71
SWIDTH 600 0
DWIDTH 7 0
BBX 7 8 0 0
BITMAP
1E
22
40
40
8E
84
8C
70
ENDCHAR
STARTCHAR H
ENCODING 72
SWIDTH 600 0
DWIDTH 7 0
BBX 9 8 -1 0
BITMAP
3B80
1100
2200
3E00
2200
4400
4400
EE00
ENDCHAR
STARTCHAR I
ENCODING 73
SWIDTH 600 0
DWIDTH 7 0
BBX 7 8 0 0
BITMAP
3E
08
10
10
10
20
20
F8
ENDCHAR
STARTCHAR J
ENCODING 74
SWIDTH 600 0
DWIDTH 7 0
BBX 7 8 0 0
BITMAP
1E
04
08
08
08
90
90
60
ENDCHAR
STARTCHAR K
ENCODING 75
SWIDTH 600 0
DWIDTH 7 0
BBX 8 8 -1 0
BITMAP
3B
12
2C
30
38
48
44
E6
ENDCHAR
STARTCHAR L
ENCODING 76
SWIDTH 600 0
DWIDTH 7 0
BBX 7 8 0 0
BITMAP
38
10
20
20
20
42
44
FC
ENDCHAR
STARTCHAR M
ENCODING 77
SWIDTH 600 0
DWIDTH 7 0
BBX 9 8 -1 0
BITMAP
3180
1B00
3500
2A00
2A00
4200
4400
EE00
ENDCHAR
STARTCHAR N
ENCODING 78
SWIDTH 600 0
DWIDTH 7 0
BBX 9 8 -1 0
BITMAP
3380
1100
3200
2A00
2A00
4C00
4400
E400
ENDCHAR
STARTCHAR O
ENCODING 79
SWIDTH 600 0
DWIDTH 7 0
BBX 7 8 0 0
BITMAP
1C
22
42
42
84
84
88
70
ENDCHAR
STARTCHAR P
ENCODING 80
SWIDTH 600 0
DWIDTH 7 0
BBX 8 8 -1 0
BITMAP
3E
11
21
22
3C
40
40
F0
ENDCHAR
STARTCHAR Q
ENCODING 81
SWIDTH 600 0
DWIDTH 7 0
BBX 7 10 0 -2
BITMAP
1C
22
42
42
84
84
88
70
24
58
ENDCHAR
STARTCHAR R
ENCODING 82
SWIDTH 600 0
DWIDTH 7 0
BBX 8 8 -1 0
BITMAP
3E
11
21
3E
24
44
42
E7
ENDCHAR
STARTCHAR S
ENCODING 83
SWIDTH 600 0
DWIDTH 7 0
BBX 7 8 0 0
BITMAP
1E
22
40
38
0C
04
88
F0
ENDCHAR
STARTCHAR T
ENCODING 84
SWIDTH 600 0
DWIDTH 7 0
BBX 8 8 0 0
BITMAP
7F
49
8A
10
10
20
20
F8
ENDCHAR
STARTCHAR U
ENCODING 85
SWIDTH 600 0
DWIDTH 7 0
BBX 8 8 0 0
BITMAP
77
22
44
44
44
88
88
70
ENDCHAR
STARTCHAR V
ENCODING 86
SWIDTH 600 0
DWIDTH 7 0
BBX 8 8 0 0
BITMAP
E7
42
44
48
28
30
20
20
ENDCHAR
STARTCHAR W
ENCODING 87
SWIDTH 600 0
DWIDTH 7 0
BBX 9 8 0 0
BITMAP
F380
4100
4A00
4A00
5400
5400
6800
4800
ENDCHAR
STARTCHAR X
ENCODING 88
SWIDTH 600 0
DWIDTH 7 0
BBX 9 8 0 0
BITMAP
3B80
1200
1400
0800
1400
2400
4200
E600
ENDCHAR
STARTCHAR Y
ENCODING 89
SWIDTH 600 0
DWIDTH 7 0
BBX 8 8 0 0
BITMAP
E7
42
44
28
30
20
20
F0
ENDCHAR
STARTCHAR Z
ENCODING 90
SWIDTH 600 0
DWIDTH 7 0
BBX 7 8 0 0
BITMAP
3E
44
48
10
20
44
84
F8
ENDCHAR
STARTCHAR bracketleft
ENCODING 91
SWIDTH 600 0
DWIDTH 7 0
BBX 6 11 1 -2
BITMAP
1C
10
10
20
20
20
40
40
80
80
E0
ENDCHAR
STARTCHAR backslash
ENCODING 92
SWIDTH 600 0
DWIDTH 7 0
BBX 4 9 2 -1
BITMAP
80
80
40
40
40
20
20
20
10
ENDCHAR
STARTCHAR bracketright
ENCODING 93
SWIDTH 600 0
DWIDTH 7 0
BBX 6 11 0 -2
BITMAP
1C
04
04
08
08
10
10
10
20
20
E0
ENDCHAR
STARTCHAR asciicircum
ENCODING 94
SWIDTH 600 0
DWIDTH 7 0
BBX 4 3 1 5
BITMAP
20
50
90
ENDCHAR
STARTCHAR underscore
ENCODING 95
SWIDTH 600 0
DWIDTH 7 0
BBX 7 1 -2 -3
BITMAP
FE
ENDCHAR
STARTCHAR grave
ENCODING 96
SWIDTH 600 0
DWIDTH 7 0
BBX 2 2 3 7
BITMAP
80
40
ENDCHAR
STARTCHAR a
ENCODING 97
SWIDTH 600 0
DWIDTH 7 0
BBX 6 6 0 0
BITMAP
78
04
7C
88
88
74
ENDCHAR
STARTCHAR b
ENCODING 98
SWIDTH 600 0
DWIDTH 7 0
BBX 7 9 -1 0
BITMAP
18
08
10
3C
22
22
42
44
B8
ENDCHAR
STARTCHAR c
ENCODING 99
SWIDTH 600 0
DWIDTH 7 0
BBX 6 6 0 0
BITMAP
38
44
80
80
88
70
ENDCHAR
STARTCHAR d
ENCODING 100
SWIDTH 600 0
DWIDTH 7 0
BBX 8 9 0 0
BITMAP
03
01
02
34
4C
84
88
88
74
ENDCHAR
STARTCHAR e
ENCODING 101
SWIDTH 600 0
DWIDTH 7 0
BBX 6 6 0 0
BITMAP
38
44
FC
80
88
70
ENDCHAR
STARTCHAR f
ENCODING 102
SWIDTH 600 0
DWIDTH 7 0
BBX 7 9 0 0
BITMAP
0E
10
10
7C
20
20
40
40
F0
ENDCHAR
STARTCHAR g
ENCODING 103
SWIDTH 600 0
DWIDTH 7 0
BBX 7 9 0 -3
BITMAP
3A
44
84
84
88
78
08
10
E0
ENDCHAR
STARTCHAR h
ENCODING 104
SWIDTH 600 0
DWIDTH 7 0
BBX 7 9 -1 0
BITMAP
18
08
10
1C
22
22
42
44
E6
ENDCHAR
STARTCHAR i
ENCODING 105
SWIDTH 600 0
DWIDTH 7 0
BBX 5 9 0 0
BITMAP
08
00
00
38
10
10
20
20
F8
ENDCHAR
STARTCHAR j
ENCODING 106
SWIDTH 600 0
DWIDTH 7 0
BBX 7 12 -1 -3
BITMAP
02
00
00
3C
04
04
08
08
08
10
10
E0
ENDCHAR
STARTCHAR k
ENCODING 107
SWIDTH 600 0
DWIDTH 7 0
BBX 7 9 0 0
BITMAP
30
10
10
26
28
30
50
48
CC
ENDCHAR
STARTCHAR l
ENCODING 108
SWIDTH 600 0
DWIDTH 7 0
BBX 5 9 0 0
BITMAP
38
08
08
10
10
10
20
20
F8
ENDCHAR
STARTCHAR m
ENCODING 109
SWIDTH 600 0
DWIDTH 7 0
BBX 7 6 -1 0
BITMAP
54
2A
2A
4A
54
D6
ENDCHAR
STARTCHAR n
ENCODING 110
SWIDTH 600 0
DWIDTH 7 0
BBX 7 6 -1 0
BITMAP
5C
22
22
42
44
E6
ENDCHAR
STARTCHAR o
ENCODING 111
SWIDTH 600 0
DWIDTH 7 0
BBX 6 6 0 0
BITMAP
38
44
84
84
88
70
ENDCHAR
STARTCHAR p
ENCODING 112
SWIDTH 600 0
DWIDTH 7 0
BBX 8 9 -2 -3
BITMAP
2E
11
11
21
22
3C
20
40
E0
ENDCHAR
STARTCHAR q
ENCODING 113
SWIDTH 600 0
DWIDTH 7 0
BBX 7 9 0 -3
BITMAP
3A
44
84
88
88
78
08
10
38
ENDCHAR
STARTCHAR r
ENCODING 114
SWIDTH 600 0
DWIDTH 7 0
BBX 6 6 0 0
BITMAP
5C
24
20
40
40
F0
ENDCHAR
STARTCHAR s
ENCODING 115
SWIDTH 600 0
DWIDTH 7 0
BBX 6 6 0 0
BITMAP
38
44
30
08
88
70
ENDCHAR
STARTCHAR t
ENCODING 116
SWIDTH 600 0
DWIDTH 7 0
BBX 5 8 1 0
BITMAP
20
20
F8
40
40
80
88
70
ENDCHAR
STARTCHAR u
ENCODING 117
SWIDTH 600 0
DWIDTH 7 0
BBX 6 6 0 0
BITMAP
CC
44
48
88
88
74
ENDCHAR
STARTCHAR v
ENCODING 118
SWIDTH 600 0
DWIDTH 7 0
BBX 7 6 0 0
BITMAP
EE
44
48
50
20
20
ENDCHAR
STARTCHAR w
ENCODING 119
SWIDTH 600 0
DWIDTH 7 0
BBX 7 6 0 0
BITMAP
EE
44
54
68
50
50
ENDCHAR
STARTCHAR x
ENCODING 120
SWIDTH 600 0
DWIDTH 7 0
BBX 8 6 -1 0
BITMAP
77
14
18
28
44
C6
ENDCHAR
STARTCHAR y
ENCODING 121
SWIDTH 600 0
DWIDTH 7 0
BBX 8 9 -1 -3
BITMAP
77
22
24
24
18
10
10
20
F0
ENDCHAR
STARTCHAR z
ENCODING 122
SWIDTH 600 0
DWIDTH 7 0
BBX 6 6 0 0
BITMAP
7C
48
10
20
48
F8
ENDCHAR
STARTCHAR braceleft
ENCODING 123
SWIDTH 600 0
DWIDTH 7 0
BBX 6 11 0 -2
BITMAP
0C
10
10
20
20
C0
20
40
40
40
30
ENDCHAR
STARTCHAR bar
ENCODING 124
SWIDTH 600 0
DWIDTH 7 0
BBX 4 9 1 -1
BITMAP
10
10
20
20
20
40
40
80
80
ENDCHAR
STARTCHAR braceright
ENCODING 125
SWIDTH 600 0
DWIDTH 7 0
BBX 6 11 0 -2
BITMAP
30
08
08
08
10
0C
10
10
20
20
C0
ENDCHAR
STARTCHAR asciitilde
ENCODING 126
SWIDTH 600 0
DWIDTH 7 0
BBX 6 2 0 2
BITMAP
64
98
ENDCHAR
STARTCHAR space
ENCODING 160
SWIDTH 600 0
DWIDTH 7 0
BBX 1 1 0 0
BITMAP
00
ENDCHAR
STARTCHAR exclamdown
ENCODING 161
SWIDTH 600 0
DWIDTH 7 0
BBX 4 9 1 -3
BITMAP
10
00
00
20
40
40
40
80
80
ENDCHAR
STARTCHAR cent
ENCODING 162
SWIDTH 600 0
DWIDTH 7 0
BBX 6 9 0 -1
BITMAP
10
10
3C
44
80
88
70
40
40
ENDCHAR
STARTCHAR sterling
ENCODING 163
SWIDTH 600 0
DWIDTH 7 0
BBX 6 8 0 0
BITMAP
18
24
20
70
20
20
44
F8
ENDCHAR
STARTCHAR currency
ENCODING 164
SWIDTH 600 0
DWIDTH 7 0
BBX 6 6 0 1
BITMAP
44
38
48
48
74
80
ENDCHAR
STARTCHAR yen
ENCODING 165
SWIDTH 600 0
DWIDTH 7 0
BBX 7 8 0 0
BITMAP
E6
44
28
7C
10
7C
20
70
ENDCHAR
STARTCHAR brokenbar
ENCODING 166
SWIDTH 600 0
DWIDTH 7 0
BBX 4 10 1 -2
BITMAP
10
10
20
20
00
00
40
40
80
80
ENDCHAR
STARTCHAR section
ENCODING 167
SWIDTH 600 0
DWIDTH 7 0
BBX 7 10 0 -1
BITMAP
1E
22
20
F0
88
44
3C
08
88
F0
ENDCHAR
STARTCHAR dieresis
ENCODING 168
SWIDTH 600 0
DWIDTH 7 0
BBX 3 1 3 7
BITMAP
A0
ENDCHAR
STARTCHAR copyright
ENCODING 169
SWIDTH 600 0
DWIDTH 7 0
BBX 8 8 0 0
BITMAP
1C
62
5D
A5
A1
9A
46
38
ENDCHAR
STARTCHAR ordfeminine
ENCODING 170
SWIDTH 600 0
DWIDTH 7 0
BBX 5 5 1 3
BITMAP
38
08
68
00
F0
ENDCHAR
STARTCHAR guillemotleft
ENCODING 171
SWIDTH 600 0
DWIDTH 7 0
BBX 6 5 0 1
BITMAP
24
48
90
90
48
ENDCHAR
STARTCHAR logicalnot
ENCODING 172
SWIDTH 600 0
DWIDTH 7 0
BBX 5 3 1 2
BITMAP
F8
10
10
ENDCHAR
STARTCHAR hyphen
ENCODING 173
SWIDTH 600 0
DWIDTH 7 0
BBX 4 1 1 3
BITMAP
F0
ENDCHAR
STARTCHAR registered
ENCODING 174
SWIDTH 600 0
DWIDTH 7 0
BBX 8 8 0 0
BITMAP
1C
62
59
95
B9
AA
46
38
ENDCHAR
STARTCHAR macron
ENCODING 175
SWIDTH 600 0
DWIDTH 7 0
BBX 4 1 2 7
BITMAP
F0
ENDCHAR
STARTCHAR degree
ENCODING 176
SWIDTH 600 0
DWIDTH 7 0
BBX 4 4 1 4
BITMAP
60
90
90
60
ENDCHAR
STARTCHAR plusminus
ENCODING 177
SWIDTH 600 0
DWIDTH 7 0
BBX 5 5 0 1
BITMAP
10
78
20
00
F0
ENDCHAR
STARTCHAR twosuperior
ENCODING 178
SWIDTH 600 0
DWIDTH 7 0
BBX 5 5 1 3
BITMAP
70
08
30
40
F0
ENDCHAR
STARTCHAR threesuperior
ENCODING 179
SWIDTH 600 0
DWIDTH 7 0
BBX 5 5 1 3
BITMAP
70
08
70
10
E0
ENDCHAR
STARTCHAR acute
ENCODING 180
SWIDTH 600 0
DWIDTH 7 0
BBX 2 2 4 7
BITMAP
40
80
ENDCHAR
STARTCHAR mu
ENCODING 181
SWIDTH 600 0
DWIDTH 7 0
BBX 7 9 -1 -3
BITMAP
66
22
24
44
44
7A
80
80
80
ENDCHAR
STARTCHAR paragraph
ENCODING 182
SWIDTH 600 0
DWIDTH 7 0
BBX 8 10 0 -1
BITMAP
1F
2A
54
54
68
28
28
50
50
D8
ENDCHAR
STARTCHAR periodcentered
ENCODING 183
SWIDTH 600 0
DWIDTH 7 0
BBX 1 1 2 3
BITMAP
80
ENDCHAR
STARTCHAR cedilla
ENCODING 184
SWIDTH 600 0
DWIDTH 7 0
BBX 3 3 2 -3
BITMAP
40
20
C0
ENDCHAR
STARTCHAR onesuperior
ENCODING 185
SWIDTH 600 0
DWIDTH 7 0
BBX 3 5 2 3
BITMAP
60
20
40
40
E0
ENDCHAR
STARTCHAR ordmasculine
ENCODING 186
SWIDTH 600 0
DWIDTH 7 0
BBX 5 5 1 3
BITMAP
38
48
70
00
F0
ENDCHAR
STARTCHAR guillemotright
ENCODING 187
SWIDTH 600 0
DWIDTH 7 0
BBX 6 5 0 1
BITMAP
48
24
24
48
90
ENDCHAR
STARTCHAR onequarter
ENCODING 188
SWIDTH 600 0
DWIDTH 7 0
BBX 8 10 0 -1
BITMAP
60
21
42
44
E8
12
26
4A
9F
04
ENDCHAR
STARTCHAR onehalf
ENCODING 189
SWIDTH 600 0
DWIDTH 7 0
BBX 8 10 0 -1
BITMAP
60
21
42
44
E8
1E
21
4E
90
1E
ENDCHAR
STARTCHAR threequarters
ENCODING 190
SWIDTH 600 0
DWIDTH 7 0
BBX 8 10 -1 -1
BITMAP
70
09
72
14
E8
12
26
4A
9F
04
ENDCHAR
STARTCHAR questiondown
ENCODING 191
SWIDTH 600 0
DWIDTH 7 0
BBX 5 8 0 -2
BITMAP
08
00
10
10
60
80
88
70
ENDCHAR
STARTCHAR Agrave
ENCODING 192
SWIDTH 600 0
DWIDTH 7 0
BBX 8 11 -1 0
BITMAP
04
02
00
1E
06
0A
12
1E
22
42
E7
ENDCHAR
STARTCHAR Aacute
ENCODING 193
SWIDTH 600 0
DWIDTH 7 0
BBX 8 11 -1 0
BITMAP
01
02
00
1E
06
0A
12
1E
22
42
E7
ENDCHAR
STARTCHAR Acircumflex
ENCODING 194
SWIDTH 600 0
DWIDTH 7 0
BBX 8 11 -1 0
BITMAP
02
05
00
1E
06
0A
12
1E
22
42
E7
ENDCHAR
STARTCHAR Atilde
ENCODING 195
SWIDTH 600 0
DWIDTH 7 0
BBX 8 11 -1 0
BITMAP
05
0A
00
1E
06
0A
12
1E
22
42
E7
ENDCHAR
STARTCHAR Adieresis
ENCODING 196
SWIDTH 600 0
DWIDTH 7 0
BBX 8 10 -1 0
BITMAP
05
00
1E
06
0A
12
1E
22
42
E7
ENDCHAR
STARTCHAR Aring
ENCODING 197
SWIDTH 600 0
DWIDTH 7 0
BBX 8 11 -1 0
BITMAP
02
05
02
1E
06
0A
12
1E
22
42
E7
ENDCHAR
STARTCHAR AE
ENCODING 198
SWIDTH 600 0
DWIDTH 7 0
BBX 10 8 -2 0
BITMAP
0FC0
0A40
1280
1700
2500
3800
4900
EF00
ENDCHAR
STARTCHAR Ccedilla
ENCODING 199
SWIDTH 600 0
DWIDTH 7 0
BBX 8 11 0 -3
BITMAP
1E
23
40
40
80
80
8C
70
20
10
60
ENDCHAR
STARTCHAR Egrave
ENCODING 200
SWIDTH 600 0
DWIDTH 7 0
BBX 8 11 0 0
BITMAP
08
04
00
3F
11
24
38
28
44
44
FC
ENDCHAR
STARTCHAR Eacute
ENCODING 201
SWIDTH 600 0
DWIDTH 7 0
BBX 8 11 0 0
BITMAP
02
04
00
3F
11
24
38
28
44
44
FC
ENDCHAR
STARTCHAR Ecircumflex
ENCODING 202
SWIDTH 600 0
DWIDTH 7 0
BBX 8 11 0 0
BITMAP
04
0A
00
3F
11
24
38
28
44
44
FC
ENDCHAR
STARTCHAR Edieresis
ENCODING 203
SWIDTH 600 0
DWIDTH 7 0
BBX 8 10 0 0
BITMAP
0A
00
3F
11
24
38
28
44
44
FC
ENDCHAR
STARTCHAR Igrave
ENCODING 204
SWIDTH 600 0
DWIDTH 7 0
BBX 7 11 0 0
BITMAP
10
08
00
3E
08
10
10
10
20
20
F8
ENDCHAR
STARTCHAR Iacute
ENCODING 205
SWIDTH 600 0
DWIDTH 7 0
BBX 7 11 0 0
BITMAP
02
04
00
3E
08
10
10
10
20
20
F8
ENDCHAR
STARTCHAR Icircumflex
ENCODING 206
SWIDTH 600 0
DWIDTH 7 0
BBX 7 11 0 0
BITMAP
04
0A
00
3E
08
10
10
10
20
20
F8
ENDCHAR
STARTCHAR Idieresis
ENCODING 207
SWIDTH 600 0
DWIDTH 7 0
BBX 7 10 0 0
BITMAP
0A
00
3E
08
10
10
10
20
20
F8
ENDCHAR
STARTCHAR Eth
ENCODING 208
SWIDTH 600 0
DWIDTH 7 0
BBX 8 8 -1 0
BITMAP
3E
11
21
79
22
42
44
F8
ENDCHAR
STARTCHAR Ntilde
ENCODING 209
SWIDTH 600 0
DWIDTH 7 0
BBX 9 11 -1 0
BITMAP
0500
0A00
0000
3380
1100
3100
2A00
2A00
4C00
4400
E400
ENDCHAR
STARTCHAR Ograve
ENCODING 210
SWIDTH 600 0
DWIDTH 7 0
BBX 7 11 0 0
BITMAP
10
08
00
1C
22
42
42
84
84
88
70
ENDCHAR
STARTCHAR Oacute
ENCODING 211
SWIDTH 600 0
DWIDTH 7 0
BBX 7 11 0 0
BITMAP
02
04
00
1C
22
42
42
84
84
88
70
ENDCHAR
STARTCHAR Ocircumflex
ENCODING 212
SWIDTH 600 0
DWIDTH 7 0
BBX 7 11 0 0
BITMAP
04
0A
00
1C
22
42
42
84
84
88
70
ENDCHAR
STARTCHAR Otilde
ENCODING 213
SWIDTH 600 0
DWIDTH 7 0
BBX 7 11 0 0
BITMAP
0A
14
00
1C
22
42
42
84
84
88
70
ENDCHAR
STARTCHAR Odieresis
ENCODING 214
SWIDTH 600 0
DWIDTH 7 0
BBX 7 10 0 0
BITMAP
0A
00
1C
22
42
42
84
84
88
70
ENDCHAR
STARTCHAR multiply
ENCODING 215
SWIDTH 600 0
DWIDTH 7 0
BBX 6 5 0 1
BITMAP
44
28
30
50
88
ENDCHAR
STARTCHAR Oslash
ENCODING 216
SWIDTH 600 0
DWIDTH 7 0
BBX 9 8 -1 0
BITMAP
0E80
1300
2500
2900
5200
6200
4400
B800
ENDCHAR
STARTCHAR Ugrave
ENCODING 217
SWIDTH 600 0
DWIDTH 7 0
BBX 8 11 0 0
BITMAP
10
08
00
77
22
44
44
44
88
88
70
ENDCHAR
STARTCHAR Uacute
ENCODING 218
SWIDTH 600 0
DWIDTH 7 0
BBX 8 11 0 0
BITMAP
02
04
00
77
22
44
44
44
88
88
70
ENDCHAR
STARTCHAR Ucircumflex
ENCODING 219
SWIDTH 600 0
DWIDTH 7 0
BBX 8 11 0 0
BITMAP
08
14
00
77
22
44
44
44
88
88
70
ENDCHAR
STARTCHAR Udieresis
ENCODING 220
SWIDTH 600 0
DWIDTH 7 0
BBX 8 10 0 0
BITMAP
14
00
77
22
44
44
44
88
88
70
ENDCHAR
STARTCHAR Yacute
ENCODING 221
SWIDTH 600 0
DWIDTH 7 0
BBX 8 11 0 0
BITMAP
04
08
00
E7
42
44
28
30
20
20
F0
ENDCHAR
STARTCHAR Thorn
ENCODING 222
SWIDTH 600 0
DWIDTH 7 0
BBX 8 8 -1 0
BITMAP
38
10
3E
21
22
7C
40
E0
ENDCHAR
STARTCHAR germandbls
ENCODING 223
SWIDTH 600 0
DWIDTH 7 0
BBX 7 9 -1 0
BITMAP
0C
12
12
22
2C
22
42
54
C8
ENDCHAR
STARTCHAR agrave
ENCODING 224
SWIDTH 600 0
DWIDTH 7 0
BBX 6 9 0 0
BITMAP
20
10
00
78
04
7C
88
88
74
ENDCHAR
STARTCHAR aacute
ENCODING 225
SWIDTH 600 0
DWIDTH 7 0
BBX 6 9 0 0
BITMAP
08
10
00
78
04
7C
88
88
74
ENDCHAR
STARTCHAR acircumflex
ENCODING 226
SWIDTH 600 0
DWIDTH 7 0
BBX 6 9 0 0
BITMAP
10
28
00
78
04
7C
88
88
74
ENDCHAR
STARTCHAR atilde
ENCODING 227
SWIDTH 600 0
DWIDTH 7 0
BBX 6 9 0 0
BITMAP
14
28
00
78
04
7C
88
88
74
ENDCHAR
STARTCHAR adieresis
ENCODING 228
SWIDTH 600 0
DWIDTH 7 0
BBX 6 8 0 0
BITMAP
28
00
78
04
7C
88
88
74
ENDCHAR
STARTCHAR aring
ENCODING 229
SWIDTH 600 0
DWIDTH 7 0
BBX 6 10 0 0
BITMAP
10
28
10
00
78
04
7C
88
88
74
ENDCHAR
STARTCHAR ae
ENCODING 230
SWIDTH 600 0
DWIDTH 7 0
BBX 8 6 -1 0
BITMAP
76
09
7F
90
92
6C
ENDCHAR
STARTCHAR ccedilla
ENCODING 231
SWIDTH 600 0
DWIDTH 7 0
BBX 6 9 0 -3
BITMAP
38
44
80
80
88
70
20
10
60
ENDCHAR
STARTCHAR egrave
ENCODING 232
SWIDTH 600 0
DWIDTH 7 0
BBX 6 9 0 0
BITMAP
20
10
00
38
44
FC
80
88
70
ENDCHAR
STARTCHAR eacute
ENCODING 233
SWIDTH 600 0
DWIDTH 7 0
BBX 6 9 0 0
BITMAP
08
10
00
38
44
FC
80
88
70
ENDCHAR
STARTCHAR ecircumflex
ENCODING 234
SWIDTH 600 0
DWIDTH 7 0
BBX 6 9 0 0
BITMAP
10
28
00
38
44
FC
80
88
70
ENDCHAR
STARTCHAR edieresis
ENCODING 235
SWIDTH 600 0
DWIDTH 7 0
BBX 6 8 0 0
BITMAP
28
00
38
44
FC
80
88
70
ENDCHAR
STARTCHAR igrave
ENCODING 236
SWIDTH 600 0
DWIDTH 7 0
BBX 5 9 0 0
BITMAP
20
10
00
38
10
10
20
20
F8
ENDCHAR
STARTCHAR iacute
ENCODING 237
SWIDTH 600 0
DWIDTH 7 0
BBX 5 9 0 0
BITMAP
08
10
00
38
10
10
20
20
F8
ENDCHAR
STARTCHAR icircumflex
ENCODING 238
SWIDTH 600 0
DWIDTH 7 0
BBX 5 9 0 0
BITMAP
10
28
00
38
10
10
20
20
F8
ENDCHAR
STARTCHAR idieresis
ENCODING 239
SWIDTH 600 0
DWIDTH 7 0
BBX 5 8 0 0
BITMAP
28
00
38
10
10
20
20
F8
ENDCHAR
STARTCHAR eth
ENCODING 240
SWIDTH 600 0
DWIDTH 7 0
BBX 6 10 0 0
BITMAP
60
14
38
48
3C
44
84
84
88
70
ENDCHAR
STARTCHAR ntilde
ENCODING 241
SWIDTH 600 0
DWIDTH 7 0
BBX 7 9 -1 0
BITMAP
0A
14
00
5C
22
22
42
44
E6
ENDCHAR
STARTCHAR ograve
ENCODING 242
SWIDTH 600 0
DWIDTH 7 0
BBX 6 9 0 0
BITMAP
20
10
00
38
44
84
84
88
70
ENDCHAR
STARTCHAR oacute
ENCODING 243
SWIDTH 600 0
DWIDTH 7 0
BBX 6 9 0 0
BITMAP
08
10
00
38
44
84
84
88
70
ENDCHAR
STARTCHAR ocircumflex
ENCODING 244
SWIDTH 600 0
DWIDTH 7 0
BBX 6 9 0 0
BITMAP
10
28
00
38
44
84
84
88
70
ENDCHAR
STARTCHAR otilde
ENCODING 245
SWIDTH 600 0
DWIDTH 7 0
BBX 6 9 0 0
BITMAP
14
28
00
38
44
84
84
88
70
ENDCHAR
STARTCHAR odieresis
ENCODING 246
SWIDTH 600 0
DWIDTH 7 0
BBX 6 8 0 0
BITMAP
28
00
38
44
84
84
88
70
ENDCHAR
STARTCHAR divide
ENCODING 247
SWIDTH 600 0
DWIDTH 7 0
BBX 4 5 1 1
BITMAP
20
00
F0
00
40
ENDCHAR
STARTCHAR oslash
ENCODING 248
SWIDTH 600 0
DWIDTH 7 0
BBX 6 8 0 -1
BITMAP
04
38
4C
94
A4
C8
70
80
ENDCHAR
STARTCHAR ugrave
ENCODING 249
SWIDTH 600 0
DWIDTH 7 0
BBX 6 9 0 0
BITMAP
20
10
00
CC
44
48
88
88
74
ENDCHAR
STARTCHAR uacute
ENCODING 250
SWIDTH 600 0
DWIDTH 7 0
BBX 6 9 0 0
BITMAP
08
10
00
CC
44
48
88
88
74
ENDCHAR
STARTCHAR ucircumflex
ENCODING 251
SWIDTH 600 0
DWIDTH 7 0
BBX 6 9 0 0
BITMAP
10
28
00
CC
44
48
88
88
74
ENDCHAR
STARTCHAR udieresis
ENCODING 252
SWIDTH 600 0
DWIDTH 7 0
BBX 6 8 0 0
BITMAP
28
00
CC
44
48
88
88
74
ENDCHAR
STARTCHAR yacute
ENCODING 253
SWIDTH 600 0
DWIDTH 7 0
BBX 8 12 -1 -3
BITMAP
04
08
00
77
22
24
24
18
10
10
20
F0
ENDCHAR
STARTCHAR thorn
ENCODING 254
SWIDTH 600 0
DWIDTH 7 0
BBX 8 12 -2 -3
BITMAP
18
08
08
1E
11
11
21
22
3C
40
40
E0
ENDCHAR
STARTCHAR ydieresis
ENCODING 255
SWIDTH 600 0
DWIDTH 7 0
BBX 8 11 -1 -3
BITMAP
14
00
77
22
24
24
18
10
10
20
F0
ENDCHAR
STARTCHAR Amacron
ENCODING 256
SWIDTH 600 0
DWIDTH 7 0
BBX 8 10 -1 0
BITMAP
1E
00
1E
06
0A
12
1E
22
42
E7
ENDCHAR
STARTCHAR amacron
ENCODING 257
SWIDTH 600 0
DWIDTH 7 0
BBX 6 8 0 0
BITMAP
78
00
78
04
7C
88
88
74
ENDCHAR
STARTCHAR Abreve
ENCODING 258
SWIDTH 600 0
DWIDTH 7 0
BBX 8 11 -1 0
BITMAP
12
0C
00
1E
06
0A
12
1E
22
42
E7
ENDCHAR
STARTCHAR abreve
ENCODING 259
SWIDTH 600 0
DWIDTH 7 0
BBX 6 9 0 0
BITMAP
48
30
00
78
04
7C
88
88
74
ENDCHAR
STARTCHAR Aogonek
ENCODING 260
SWIDTH 600 0
DWIDTH 7 0
BBX 8 11 -1 -3
BITMAP
1E
06
0A
12
1E
22
42
E7
08
10
0C
ENDCHAR
STARTCHAR aogonek
ENCODING 261
SWIDTH 600 0
DWIDTH 7 0
BBX 6 9 0 -3
BITMAP
78
04
7C
88
88
74
10
20
18
ENDCHAR
STARTCHAR Cacute
ENCODING 262
SWIDTH 600 0
DWIDTH 7 0
BBX 7 11 0 0
BITMAP
08
10
00
1E
22
40
40
80
80
8C
70
ENDCHAR
STARTCHAR cacute
ENCODING 263
SWIDTH 600 0
DWIDTH 7 0
BBX 6 9 0 0
BITMAP
08
10
00
38
44
80
80
88
70
ENDCHAR
STARTCHAR Ccircumflex
ENCODING 264
SWIDTH 600 0
DWIDTH 7 0
BBX 7 11 0 0
BITMAP
08
14
00
1E
22
40
40
80
80
8C
70
ENDCHAR
STARTCHAR ccircumflex
ENCODING 265
SWIDTH 600 0
DWIDTH 7 0
BBX 6 9 0 0
BITMAP
10
28
00
38
44
80
80
88
70
ENDCHAR
STARTCHAR Cdotaccent
ENCODING 266
SWIDTH 600 0
DWIDTH 7 0
BBX 7 10 0 0
BITMAP
08
00
1E
22
40
40
80
80
8C
70
ENDCHAR
STARTCHAR cdotaccent
ENCODING 267
SWIDTH 600 0
DWIDTH 7 0
BBX 6 8 0 0
BITMAP
10
00
38
44
80
80
88
70
ENDCHAR
STARTCHAR Ccaron
ENCODING 268
SWIDTH 600 0
DWIDTH 7 0
BBX 7 11 0 0
BITMAP
14
08
00
1E
22
40
40
80
80
8C
70
ENDCHAR
STARTCHAR ccaron
ENCODING 269
SWIDTH 600 0
DWIDTH 7 0
BBX 6 9 0 0
BITMAP
28
10
00
38
44
80
80
88
70
ENDCHAR
STARTCHAR Dcaron
ENCODING 270
SWIDTH 600 0
DWIDTH 7 0
BBX 8 11 -1 0
BITMAP
14
08
00
3E
11
21
21
22
42
44
F8
ENDCHAR
STARTCHAR dcaron
ENCODING 271
SWIDTH 600 0
DWIDTH 7 0
BBX 8 12 0 0
BITMAP
05
02
00
03
01
02
34
4C
84
88
88
74
ENDCHAR
STARTCHAR Dcroat
ENCODING 272
SWIDTH 600 0
DWIDTH 7 0
BBX 8 8 -1 0
BITMAP
3E
11
21
79
22
42
44
F8
ENDCHAR
STARTCHAR dcroat
ENCODING 273
SWIDTH 600 0
DWIDTH 7 0
BBX 9 9 0 0
BITMAP
0300
0100
3F80
3400
4C00
8400
8800
8800
7400
ENDCHAR
STARTCHAR Emacron
ENCODING 274
SWIDTH 600 0
DWIDTH 7 0
BBX 8 10 0 0
BITMAP
1E
00
3F
11
24
38
28
40
44
FC
ENDCHAR
STARTCHAR emacron
ENCODING 275
SWIDTH 600 0
DWIDTH 7 0
BBX 6 8 0 0
BITMAP
78
00
38
44
FC
80
88
70
ENDCHAR
STARTCHAR Ebreve
ENCODING 276
SWIDTH 600 0
DWIDTH 7 0
BBX 8 11 0 0
BITMAP
12
0C
00
3F
11
24
38
28
40
44
FC
ENDCHAR
STARTCHAR ebreve
ENCODING 277
SWIDTH 600 0
DWIDTH 7 0
BBX 6 9 0 0
BITMAP
48
30
00
38
44
FC
80
88
70
ENDCHAR
STARTCHAR Edotaccent
ENCODING 278
SWIDTH 600 0
DWIDTH 7 0
BBX 8 10 0 0
BITMAP
08
00
3F
11
24
38
28
40
44
FC
ENDCHAR
STARTCHAR edotaccent
ENCODING 279
SWIDTH 600 0
DWIDTH 7 0
BBX 6 8 0 0
BITMAP
10
00
38
44
FC
80
88
70
ENDCHAR
STARTCHAR Eogonek
ENCODING 280
SWIDTH 600 0
DWIDTH 7 0
BBX 8 11 0 -3
BITMAP
3F
11
24
38
28
40
44
FC
10
20
18
ENDCHAR
STARTCHAR eogonek
ENCODING 281
SWIDTH 600 0
DWIDTH 7 0
BBX 6 9 0 -3
BITMAP
38
44
FC
80
88
70
20
40
30
ENDCHAR
STARTCHAR Ecaron
ENCODING 282
SWIDTH 600 0
DWIDTH 7 0
BBX 8 11 0 0
BITMAP
14
08
00
3F
11
24
38
28
40
44
FC
ENDCHAR
STARTCHAR ecaron
ENCODING 283
SWIDTH 600 0
DWIDTH 7 0
BBX 6 9 0 0
BITMAP
28
10
00
38
44
FC
80
88
70
ENDCHAR
STARTCHAR Gcircumflex
ENCODING 284
SWIDTH 600 0
DWIDTH 7 0
BBX 7 11 0 0
BITMAP
08
14
00
1E
22
40
40
8E
84
8C
70
ENDCHAR
STARTCHAR gcircumflex
ENCODING 285
SWIDTH 600 0
DWIDTH 7 0
BBX 7 12 0 -3
BITMAP
10
28
00
3A
44
84
84
88
78
08
10
E0
ENDCHAR
STARTCHAR Gbreve
ENCODING 286
SWIDTH 600 0
DWIDTH 7 0
BBX 7 11 0 0
BITMAP
24
18
00
1E
22
40
40
8E
84
8C
70
ENDCHAR
STARTCHAR gbreve
ENCODING 287
SWIDTH 600 0
DWIDTH 7 0
BBX 7 12 0 -3
BITMAP
24
18
00
3A
44
84
84
88
78
08
10
E0
ENDCHAR
STARTCHAR Gdotaccent
ENCODING 288
SWIDTH 600 0
DWIDTH 7 0
BBX 7 10 0 0
BITMAP
08
00
1E
22
40
40
8E
84
8C
70
ENDCHAR
STARTCHAR gdotaccent
ENCODING 289
SWIDTH 600 0
DWIDTH 7 0
BBX 7 11 0 -3
BITMAP
10
00
3A
44
84
84
88
78
08
10
E0
ENDCHAR
STARTCHAR Gcommaaccent
ENCODING 290
SWIDTH 600 0
DWIDTH 7 0
BBX 7 12 0 -4
BITMAP
1E
22
40
40
8E
84
8C
70
00
10
10
20
ENDCHAR
STARTCHAR gcommaaccent
ENCODING 291
SWIDTH 600 0
DWIDTH 7 0
BBX 7 13 0 -3
BITMAP
20
20
10
00
3A
44
84
84
88
78
08
10
E0
ENDCHAR
STARTCHAR Hcircumflex
ENCODING 292
SWIDTH 600 0
DWIDTH 7 0
BBX 9 11 -1 0
BITMAP
0400
0A00
0000
3B80
1100
2200
3E00
2200
4400
4400
EE00
ENDCHAR
STARTCHAR hcircumflex
ENCODING 293
SWIDTH 600 0
DWIDTH 7 0
BBX 7 12 -1 0
BITMAP
10
28
00
18
08
10
1C
22
22
42
44
E6
ENDCHAR
STARTCHAR Hbar
ENCODING 294
SWIDTH 600 0
DWIDTH 7 0
BBX 9 8 -1 0
BITMAP
3B80
FF80
2200
3E00
2200
4400
4400
EE00
ENDCHAR
STARTCHAR hbar
ENCODING 295
SWIDTH 600 0
DWIDTH 7 0
BBX 8 9 -2 0
BITMAP
0C
04
FE
0E
11
11
21
22
73
ENDCHAR
STARTCHAR Itilde
ENCODING 296
SWIDTH 600 0
DWIDTH 7 0
BBX 7 11 0 0
BITMAP
14
28
00
3E
08
10
10
10
20
20
F8
ENDCHAR
STARTCHAR itilde
ENCODING 297
SWIDTH 600 0
DWIDTH 7 0
BBX 6 9 0 0
BITMAP
14
28
00
38
10
10
20
20
F8
ENDCHAR
STARTCHAR Imacron
ENCODING 298
SWIDTH 600 0
DWIDTH 7 0
BBX 7 10 0 0
BITMAP
3C
00
3E
08
10
10
10
20
20
F8
ENDCHAR
STARTCHAR imacron
ENCODING 299
SWIDTH 600 0
DWIDTH 7 0
BBX 5 8 0 0
BITMAP
78
00
38
10
10
20
20
F8
ENDCHAR
STARTCHAR Ibreve
ENCODING 300
SWIDTH 600 0
DWIDTH 7 0
BBX 7 11 0 0
BITMAP
24
18
00
3E
08
10
10
10
20
20
F8
ENDCHAR
STARTCHAR ibreve
ENCODING 301
SWIDTH 600 0
DWIDTH 7 0
BBX 5 9 0 0
BITMAP
48
30
00
38
10
10
20
20
F8
ENDCHAR
STARTCHAR Iogonek
ENCODING 302
SWIDTH 600 0
DWIDTH 7 0
BBX 7 11 0 -3
BITMAP
3E
08
10
10
10
20
20
F8
20
40
30
ENDCHAR
STARTCHAR iogonek
ENCODING 303
SWIDTH 600 0
DWIDTH 7 0
BBX 5 12 0 -3
BITMAP
08
00
00
38
10
10
20
20
F8
20
40
30
ENDCHAR
STARTCHAR Idotaccent
ENCODING 304
SWIDTH 600 0
DWIDTH 7 0
BBX 7 10 0 0
BITMAP
08
00
3E
08
10
10
10
20
20
F8
ENDCHAR
STARTCHAR dotlessi
ENCODING 305
SWIDTH 600 0
DWIDTH 7 0
BBX 5 6 0 0
BITMAP
38
10
10
20
20
F8
ENDCHAR
STARTCHAR IJ
ENCODING 306
SWIDTH 600 0
DWIDTH 7 0
BBX 10 8 0 0
BITMAP
3FC0
0880
1100
1100
1100
3200
3200
FC00
ENDCHAR
STARTCHAR ij
ENCODING 307
SWIDTH 600 0
DWIDTH 7 0
BBX 8 12 0 -3
BITMAP
09
00
00
3E
12
12
24
24
FC
08
08
70
ENDCHAR
STARTCHAR Jcircumflex
ENCODING 308
SWIDTH 600 0
DWIDTH 7 0
BBX 7 11 0 0
BITMAP
08
14
00
1E
04
08
08
08
90
90
60
ENDCHAR
STARTCHAR jcircumflex
ENCODING 309
SWIDTH 600 0
DWIDTH 7 0
BBX 7 12 -1 -3
BITMAP
08
14
00
3C
04
04
08
08
08
10
10
E0
ENDCHAR
STARTCHAR Kcommaaccent
ENCODING 310
SWIDTH 600 0
DWIDTH 7 0
BBX 8 12 -1 -4
BITMAP
3B
12
2C
30
38
48
44
E6
00
10
10
20
ENDCHAR
STARTCHAR kcommaaccent
ENCODING 311
SWIDTH 600 0
DWIDTH 7 0
BBX 7 13 0 -4
BITMAP
30
10
10
26
28
30
50
48
CC
00
10
10
20
ENDCHAR
STARTCHAR kgreenlandic
ENCODING 312
SWIDTH 600 0
DWIDTH 7 0
BBX 7 6 0 0
BITMAP
26
28
30
50
48
CC
ENDCHAR
STARTCHAR Lacute
ENCODING 313
SWIDTH 600 0
DWIDTH 7 0
BBX 7 11 0 0
BITMAP
08
10
00
38
10
20
20
20
42
44
FC
ENDCHAR
STARTCHAR lacute
ENCODING 314
SWIDTH 600 0
DWIDTH 7 0
BBX 5 12 0 0
BITMAP
08
10
00
38
08
08
10
10
10
20
20
F8
ENDCHAR
STARTCHAR Lcommaaccent
ENCODING 315
SWIDTH 600 0
DWIDTH 7 0
BBX 7 12 0 -4
BITMAP
38
10
20
20
20
42
44
FC
00
10
10
20
ENDCHAR
STARTCHAR lcommaaccent
ENCODING 316
SWIDTH 600 0
DWIDTH 7 0
BBX 5 13 0 -4
BITMAP
38
08
08
10
10
10
20
20
F8
00
20
20
40
ENDCHAR
STARTCHAR Lcaron
ENCODING 317
SWIDTH 600 0
DWIDTH 7 0
BBX 7 11 0 0
BITMAP
28
10
00
38
10
20
20
20
42
44
FC
ENDCHAR
STARTCHAR lcaron
ENCODING 318
SWIDTH 600 0
DWIDTH 7 0
BBX 5 12 0 0
BITMAP
28
10
00
38
08
08
10
10
10
20
20
F8
ENDCHAR
STARTCHAR Ldot
ENCODING 319
SWIDTH 600 0
DWIDTH 7 0
BBX 7 8 0 0
BITMAP
38
10
20
20
28
42
44
FC
ENDCHAR
STARTCHAR ldot
ENCODING 320
SWIDTH 600 0
DWIDTH 7 0
BBX 5 9 0 0
BITMAP
38
08
08
10
10
18
20
20
F8
ENDCHAR
STARTCHAR Lslash
ENCODING 321
SWIDTH 600 0
DWIDTH 7 0
BBX 7 8 0 0
BITMAP
38
10
20
30
60
C2
44
FC
ENDCHAR
STARTCHAR lslash
ENCODING 322
SWIDTH 600 0
DWIDTH 7 0
BBX 5 8 0 0
BITMAP
38
08
10
18
60
20
20
F8
ENDCHAR
STARTCHAR Nacute
ENCODING 323
SWIDTH 600 0
DWIDTH 7 0
BBX 9 11 -1 0
BITMAP
0400
0800
0000
3380
1100
3200
2A00
2A00
4C00
4400
E400
ENDCHAR
STARTCHAR nacute
ENCODING 324
SWIDTH 600 0
DWIDTH 7 0
BBX 7 9 -1 0
BITMAP
08
10
00
5C
22
22
42
44
E6
ENDCHAR
STARTCHAR Ncommaaccent
ENCODING 325
SWIDTH 600 0
DWIDTH 7 0
BBX 9 12 -1 -4
BITMAP
3380
1100
3200
2A00
2A00
4C00
4400
E400
0000
1000
1000
2000
ENDCHAR
STARTCHAR ncommaaccent
ENCODING 326
SWIDTH 600 0
DWIDTH 7 0
BBX 7 10 -1 -4
BITMAP
5C
22
22
42
44
E6
00
10
10
20
ENDCHAR
STARTCHAR Ncaron
ENCODING 327
SWIDTH 600 0
DWIDTH 7 0
BBX 9 11 -1 0
BITMAP
1400
0800
0000
3380
1100
3200
2A00
2A00
4C00
4400
E400
ENDCHAR
STARTCHAR ncaron
ENCODING 328
SWIDTH 600 0
DWIDTH 7 0
BBX 7 9 -1 0
BITMAP
28
10
00
5C
22
22
42
44
E6
ENDCHAR
STARTCHAR napostrophe
ENCODING 329
SWIDTH 600 0
DWIDTH 7 0
BBX 8 8 -2 0
BITMAP
40
40
AE
11
11
21
22
73
ENDCHAR
STARTCHAR Eng
ENCODING 330
SWIDTH 600 0
DWIDTH 7 0
BBX 9 11 -1 -3
BITMAP
3380
1100
3200
2A00
2A00
4C00
4400
E400
0800
0800
7000
ENDCHAR
STARTCHAR eng
ENCODING 331
SWIDTH 600 0
DWIDTH 7 0
BBX 7 9 -1 -3
BITMAP
5C
22
22
42
42
E2
04
04
38
ENDCHAR
STARTCHAR Omacron
ENCODING 332
SWIDTH 600 0
DWIDTH 7 0
BBX 7 10 0 0
BITMAP
3C
00
1C
22
42
42
84
84
88
70
ENDCHAR
STARTCHAR omacron
ENCODING 333
SWIDTH 600 0
DWIDTH 7 0
BBX 6 8 0 0
BITMAP
78
00
38
44
84
84
88
70
ENDCHAR
STARTCHAR Obreve
ENCODING 334
SWIDTH 600 0
DWIDTH 7 0
BBX 7 11 0 0
BITMAP
24
18
00
1C
22
42
42
84
84
88
70
ENDCHAR
STARTCHAR obreve
ENCODING 335
SWIDTH 600 0
DWIDTH 7 0
BBX 6 9 0 0
BITMAP
48
30
00
38
44
84
84
88
70
ENDCHAR
STARTCHAR Ohungarumlaut
ENCODING 336
SWIDTH 600 0
DWIDTH 7 0
BBX 7 11 0 0
BITMAP
12
24
00
1C
22
42
42
84
84
88
70
ENDCHAR
STARTCHAR ohungarumlaut
ENCODING 337
SWIDTH 600 0
DWIDTH 7 0
BBX 6 9 0 0
BITMAP
24
48
00
38
44
84
84
88
70
ENDCHAR
STARTCHAR OE
ENCODING 338
SWIDTH 600 0
DWIDTH 7 0
BBX 9 8 -1 0
BITMAP
1F80
2480
4500
4E00
8A00
9000
9200
7E00
ENDCHAR
STARTCHAR oe
ENCODING 339
SWIDTH 600 0
DWIDTH 7 0
BBX 8 6 -1 0
BITMAP
36
49
8F
90
92
6C
ENDCHAR
STARTCHAR Racute
ENCODING 340
SWIDTH 600 0
DWIDTH 7 0
BBX 8 11 -1 0
BITMAP
04
08
00
3E
11
21
3E
24
44
42
E7
ENDCHAR
STARTCHAR racute
ENCODING 341
SWIDTH 600 0
DWIDTH 7 0
BBX 6 9 0 0
BITMAP
08
10
00
5C
24
20
40
40
F0
ENDCHAR
STARTCHAR Rcommaaccent
ENCODING 342
SWIDTH 600 0
DWIDTH 7 0
BBX 8 12 -1 -4
BITMAP
3E
11
21
3E
24
44
42
E7
00
08
08
10
ENDCHAR
STARTCHAR rcommaaccent
ENCODING 343
SWIDTH 600 0
DWIDTH 7 0
BBX 6 10 0 -4
BITMAP
5C
24
20
40
40
F0
00
20
20
40
ENDCHAR
STARTCHAR Rcaron
ENCODING 344
SWIDTH 600 0
DWIDTH 7 0
BBX 8 11 -1 0
BITMAP
14
08
00
3E
11
21
3E
24
44
42
E7
ENDCHAR
STARTCHAR rcaron
ENCODING 345
SWIDTH 600 0
DWIDTH 7 0
BBX 6 9 0 0
BITMAP
28
10
00
5C
24
20
40
40
F0
ENDCHAR
STARTCHAR Sacute
ENCODING 346
SWIDTH 600 0
DWIDTH 7 0
BBX 7 11 0 0
BITMAP
08
10
00
1E
22
40
38
0C
04
88
F0
ENDCHAR
STARTCHAR sacute
ENCODING 347
SWIDTH 600 0
DWIDTH 7 0
BBX 6 9 0 0
BITMAP
08
10
00
38
44
30
08
88
70
ENDCHAR
STARTCHAR Scircumflex
ENCODING 348
SWIDTH 600 0
DWIDTH 7 0
BBX 7 11 0 0
BITMAP
08
14
00
1E
22
40
38
0C
04
88
F0
ENDCHAR
STARTCHAR scircumflex
ENCODING 349
SWIDTH 600 0
DWIDTH 7 0
BBX 6 9 0 0
BITMAP
10
28
00
38
44
30
08
88
70
ENDCHAR
STARTCHAR Scedilla
ENCODING 350
SWIDTH 600 0
DWIDTH 7 0
BBX 7 11 0 -3
BITMAP
1E
22
40
38
0C
04
88
F0
20
10
60
ENDCHAR
STARTCHAR scedilla
ENCODING 351
SWIDTH 600 0
DWIDTH 7 0
BBX 6 9 0 -3
BITMAP
38
44
30
08
88
70
20
10
60
ENDCHAR
STARTCHAR Scaron
ENCODING 352
SWIDTH 600 0
DWIDTH 7 0
BBX 7 10 0 0
BITMAP
14
08
00
1E
22
40
38
04
88
F0
ENDCHAR
STARTCHAR scaron
ENCODING 353
SWIDTH 600 0
DWIDTH 7 0
BBX 6 9 0 0
BITMAP
28
10
00
38
44
30
08
88
70
ENDCHAR
STARTCHAR Tcommaaccent
ENCODING 354
SWIDTH 600 0
DWIDTH 7 0
BBX 8 11 0 -3
BITMAP
7F
49
8A
10
10
20
20
F8
10
08
30
ENDCHAR
STARTCHAR tcommaaccent
ENCODING 355
SWIDTH 600 0
DWIDTH 7 0
BBX 5 11 1 -3
BITMAP
20
20
F8
40
40
80
88
70
20
10
60
ENDCHAR
STARTCHAR Tcaron
ENCODING 356
SWIDTH 600 0
DWIDTH 7 0
BBX 8 11 0 0
BITMAP
14
08
00
7F
49
8A
10
10
20
20
F8
ENDCHAR
STARTCHAR tcaron
ENCODING 357
SWIDTH 600 0
DWIDTH 7 0
BBX 5 11 1 0
BITMAP
50
20
00
20
20
F8
40
40
80
88
70
ENDCHAR
STARTCHAR Tbar
ENCODING 358
SWIDTH 600 0
DWIDTH 7 0
BBX 8 8 0 0
BITMAP
7F
49
8A
7F
10
20
20
F8
ENDCHAR
STARTCHAR tbar
ENCODING 359
SWIDTH 600 0
DWIDTH 7 0
BBX 7 8 0 0
BITMAP
10
10
7C
20
FE
40
44
38
ENDCHAR
STARTCHAR Utilde
ENCODING 360
SWIDTH 600 0
DWIDTH 7 0
BBX 8 11 0 0
BITMAP
0A
14
00
77
22
44
44
44
88
88
70
ENDCHAR
STARTCHAR utilde
ENCODING 361
SWIDTH 600 0
DWIDTH 7 0
BBX 6 9 0 0
BITMAP
28
50
00
CC
44
48
88
88
74
ENDCHAR
STARTCHAR Umacron
ENCODING 362
SWIDTH 600 0
DWIDTH 7 0
BBX 8 10 0 0
BITMAP
3C
00
77
22
44
44
44
88
88
70
ENDCHAR
STARTCHAR umacron
ENCODING 363
SWIDTH 600 0
DWIDTH 7 0
BBX 6 8 0 0
BITMAP
78
00
CC
44
48
88
88
74
ENDCHAR
STARTCHAR Ubreve
ENCODING 364
SWIDTH 600 0
DWIDTH 7 0
BBX 8 11 0 0
BITMAP
24
18
00
77
22
44
44
44
88
88
70
ENDCHAR
STARTCHAR ubreve
ENCODING 365
SWIDTH 600 0
DWIDTH 7 0
BBX 6 9 0 0
BITMAP
48
30
00
CC
44
48
88
88
74
ENDCHAR
STARTCHAR Uring
ENCODING 366
SWIDTH 600 0
DWIDTH 7 0
BBX 8 12 0 0
BITMAP
08
14
08
00
77
22
44
44
44
88
88
70
ENDCHAR
STARTCHAR uring
ENCODING 367
SWIDTH 600 0
DWIDTH 7 0
BBX 6 10 0 0
BITMAP
10
28
10
00
CC
44
48
88
88
74
ENDCHAR
STARTCHAR Uhungarumlaut
ENCODING 368
SWIDTH 600 0
DWIDTH 7 0
BBX 8 11 0 0
BITMAP
12
24
00
77
22
44
44
44
88
88
70
ENDCHAR
STARTCHAR uhungarumlaut
ENCODING 369
SWIDTH 600 0
DWIDTH 7 0
BBX 6 9 0 0
BITMAP
24
48
00
CC
44
48
88
88
74
ENDCHAR
STARTCHAR Uogonek
ENCODING 370
SWIDTH 600 0
DWIDTH 7 0
BBX 8 11 0 -3
BITMAP
77
22
44
44
44
88
88
70
10
20
18
ENDCHAR
STARTCHAR uogonek
ENCODING 371
SWIDTH 600 0
DWIDTH 7 0
BBX 6 9 0 -3
BITMAP
CC
44
48
88
88
74
10
20
18
ENDCHAR
STARTCHAR Wcircumflex
ENCODING 372
SWIDTH 600 0
DWIDTH 7 0
BBX 9 11 0 0
BITMAP
0800
1400
0000
F380
4100
4A00
4A00
5400
5400
6800
4800
ENDCHAR
STARTCHAR wcircumflex
ENCODING 373
SWIDTH 600 0
DWIDTH 7 0
BBX 7 9 0 0
BITMAP
10
28
00
EE
44
54
68
50
50
ENDCHAR
STARTCHAR Ycircumflex
ENCODING 374
SWIDTH 600 0
DWIDTH 7 0
BBX 8 11 0 0
BITMAP
10
28
00
E7
42
44
28
30
20
20
F0
ENDCHAR
STARTCHAR ycircumflex
ENCODING 375
SWIDTH 600 0
DWIDTH 7 0
BBX 8 12 -1 -3
BITMAP
08
14
00
77
22
24
24
18
10
10
20
F0
ENDCHAR
STARTCHAR Ydieresis
ENCODING 376
SWIDTH 600 0
DWIDTH 7 0
BBX 8 9 0 0
BITMAP
14
00
E7
42
44
28
30
20
F0
ENDCHAR
STARTCHAR Zacute
ENCODING 377
SWIDTH 600 0
DWIDTH 7 0
BBX 7 11 0 0
BITMAP
08
10
00
3E
44
48
10
20
44
84
F8
ENDCHAR
STARTCHAR zacute
ENCODING 378
SWIDTH 600 0
DWIDTH 7 0
BBX 6 9 0 0
BITMAP
08
10
00
7C
48
10
20
48
F8
ENDCHAR
STARTCHAR Zdotaccent
ENCODING 379
SWIDTH 600 0
DWIDTH 7 0
BBX 7 10 0 0
BITMAP
10
00
3E
44
48
10
20
44
84
F8
ENDCHAR
STARTCHAR zdotaccent
ENCODING 380
SWIDTH 600 0
DWIDTH 7 0
BBX 6 8 0 0
BITMAP
10
00
7C
48
10
20
48
F8
ENDCHAR
STARTCHAR Zcaron
ENCODING 381
SWIDTH 600 0
DWIDTH 7 0
BBX 7 10 0 0
BITMAP
14
08
00
3E
44
48
10
24
44
F8
ENDCHAR
STARTCHAR zcaron
ENCODING 382
SWIDTH 600 0
DWIDTH 7 0
BBX 6 9 0 0
BITMAP
28
10
00
7C
48
10
20
48
F8
ENDCHAR
STARTCHAR uni0186
ENCODING 390
SWIDTH 600 0
DWIDTH 7 0
BBX 7 8 0 0
BITMAP
1C
62
02
02
04
04
88
F0
ENDCHAR
STARTCHAR uni0189
ENCODING 393
SWIDTH 600 0
DWIDTH 7 0
BBX 8 8 -1 0
BITMAP
3E
11
21
79
22
42
44
F8
ENDCHAR
STARTCHAR uni018E
ENCODING 398
SWIDTH 600 0
DWIDTH 7 0
BBX 8 8 0 0
BITMAP
3F
22
02
14
1C
24
88
FC
ENDCHAR
STARTCHAR florin
ENCODING 402
SWIDTH 600 0
DWIDTH 7 0
BBX 6 9 0 -1
BITMAP
0C
10
38
10
10
20
20
20
C0
ENDCHAR
STARTCHAR uni0197
ENCODING 407
SWIDTH 600 0
DWIDTH 7 0
BBX 7 8 0 0
BITMAP
3E
08
10
FE
10
20
20
F8
ENDCHAR
STARTCHAR uni019A
ENCODING 410
SWIDTH 600 0
DWIDTH 7 0
BBX 7 9 -1 0
BITMAP
1C
04
04
08
FE
08
10
10
7C
ENDCHAR
STARTCHAR uni019D
ENCODING 413
SWIDTH 600 0
DWIDTH 7 0
BBX 12 11 -4 -3
BITMAP
0670
0220
0640
0540
0540
0980
0880
0880
1000
1000
E000
ENDCHAR
STARTCHAR uni019F
ENCODING 415
SWIDTH 600 0
DWIDTH 7 0
BBX 7 8 0 0
BITMAP
1C
22
42
FE
84
84
88
70
ENDCHAR
STARTCHAR Ohorn
ENCODING 416
SWIDTH 600 0
DWIDTH 7 0
BBX 9 8 0 0
BITMAP
1C80
2280
4300
4200
8400
8400
8800
7000
ENDCHAR
STARTCHAR ohorn
ENCODING 417
SWIDTH 600 0
DWIDTH 7 0
BBX 8 6 0 0
BITMAP
39
45
86
84
88
70
ENDCHAR
STARTCHAR Uhorn
ENCODING 431
SWIDTH 600 0
DWIDTH 7 0
BBX 10 8 0 0
BITMAP
7740
2240
4480
4400
4400
8800
8800
7000
ENDCHAR
STARTCHAR uhorn
ENCODING 432
SWIDTH 600 0
DWIDTH 7 0
BBX 8 6 0 0
BITMAP
CD
45
4A
88
88
74
ENDCHAR
STARTCHAR uni01B5
ENCODING 437
SWIDTH 600 0
DWIDTH 7 0
BBX 7 8 0 0
BITMAP
3E
44
48
FE
20
44
84
F8
ENDCHAR
STARTCHAR uni01B6
ENCODING 438
SWIDTH 600 0
DWIDTH 7 0
BBX 7 6 0 0
BITMAP
7C
48
FE
20
48
F8
ENDCHAR
STARTCHAR uni01BB
ENCODING 443
SWIDTH 600 0
DWIDTH 7 0
BBX 6 9 0 0
BITMAP
38
44
04
08
FC
20
40
88
F8
ENDCHAR
STARTCHAR uni01BC
ENCODING 444
SWIDTH 600 0
DWIDTH 7 0
BBX 6 9 0 0
BITMAP
3C
20
40
78
04
04
04
88
70
ENDCHAR
STARTCHAR uni01C0
ENCODING 448
SWIDTH 600 0
DWIDTH 7 0
BBX 4 9 1 -1
BITMAP
10
10
20
20
20
40
40
80
80
ENDCHAR
STARTCHAR uni01C2
ENCODING 450
SWIDTH 600 0
DWIDTH 7 0
BBX 6 9 0 -1
BITMAP
08
08
10
7C
10
F8
20
40
40
ENDCHAR
STARTCHAR uni01C3
ENCODING 451
SWIDTH 600 0
DWIDTH 7 0
BBX 3 8 2 0
BITMAP
20
20
40
40
40
80
00
80
ENDCHAR
STARTCHAR uni01CD
ENCODING 461
SWIDTH 600 0
DWIDTH 7 0
BBX 8 11 -1 0
BITMAP
14
08
00
1E
06
0A
12
1E
22
42
E7
ENDCHAR
STARTCHAR uni01CE
ENCODING 462
SWIDTH 600 0
DWIDTH 7 0
BBX 6 9 0 0
BITMAP
28
10
00
78
04
7C
88
88
74
ENDCHAR
STARTCHAR uni01CF
ENCODING 463
SWIDTH 600 0
DWIDTH 7 0
BBX 7 11 0 0
BITMAP
14
08
00
3E
08
10
10
10
20
20
F8
ENDCHAR
STARTCHAR uni01D0
ENCODING 464
SWIDTH 600 0
DWIDTH 7 0
BBX 5 9 0 0
BITMAP
28
10
00
38
10
10
20
20
F8
ENDCHAR
STARTCHAR uni01D1
ENCODING 465
SWIDTH 600 0
DWIDTH 7 0
BBX 7 11 0 0
BITMAP
14
08
00
1C
22
42
42
84
84
88
70
ENDCHAR
STARTCHAR uni01D2
ENCODING 466
SWIDTH 600 0
DWIDTH 7 0
BBX 6 9 0 0
BITMAP
28
10
00
38
44
84
84
88
70
ENDCHAR
STARTCHAR uni01D3
ENCODING 467
SWIDTH 600 0
DWIDTH 7 0
BBX 8 11 0 0
BITMAP
14
08
00
77
22
44
44
44
88
88
70
ENDCHAR
STARTCHAR uni01D4
ENCODING 468
SWIDTH 600 0
DWIDTH 7 0
BBX 6 9 0 0
BITMAP
28
10
00
CC
44
48
88
88
74
ENDCHAR
STARTCHAR uni01D5
ENCODING 469
SWIDTH 600 0
DWIDTH 7 0
BBX 8 12 0 0
BITMAP
3C
00
14
00
77
22
44
44
44
88
88
70
ENDCHAR
STARTCHAR uni01D6
ENCODING 470
SWIDTH 600 0
DWIDTH 7 0
BBX 6 10 0 0
BITMAP
78
00
28
00
CC
44
48
88
88
74
ENDCHAR
STARTCHAR uni01D7
ENCODING 471
SWIDTH 600 0
DWIDTH 7 0
BBX 8 13 0 0
BITMAP
04
08
00
14
00
77
22
44
44
44
88
88
70
ENDCHAR
STARTCHAR uni01D8
ENCODING 472
SWIDTH 600 0
DWIDTH 7 0
BBX 6 11 0 0
BITMAP
10
20
00
28
00
CC
44
48
88
88
74
ENDCHAR
STARTCHAR uni01D9
ENCODING 473
SWIDTH 600 0
DWIDTH 7 0
BBX 8 13 0 0
BITMAP
14
08
00
14
00
77
22
44
44
44
88
88
70
ENDCHAR
STARTCHAR uni01DA
ENCODING 474
SWIDTH 600 0
DWIDTH 7 0
BBX 6 11 0 0
BITMAP
28
10
00
28
00
CC
44
48
88
88
74
ENDCHAR
STARTCHAR uni01DB
ENCODING 475
SWIDTH 600 0
DWIDTH 7 0
BBX 8 13 0 0
BITMAP
10
08
00
14
00
77
22
44
44
44
88
88
70
ENDCHAR
STARTCHAR uni01DC
ENCODING 476
SWIDTH 600 0
DWIDTH 7 0
BBX 6 11 0 0
BITMAP
20
10
00
28
00
CC
44
48
88
88
74
ENDCHAR
STARTCHAR uni01DD
ENCODING 477
SWIDTH 600 0
DWIDTH 7 0
BBX 6 6 0 0
BITMAP
38
44
04
FC
88
70
ENDCHAR
STARTCHAR uni01DE
ENCODING 478
SWIDTH 600 0
DWIDTH 7 0
BBX 8 12 -1 0
BITMAP
1E
00
05
00
1E
06
0A
12
1E
22
42
E7
ENDCHAR
STARTCHAR uni01DF
ENCODING 479
SWIDTH 600 0
DWIDTH 7 0
BBX 6 10 0 0
BITMAP
78
00
28
00
78
04
7C
88
88
74
ENDCHAR
STARTCHAR uni01E0
ENCODING 480
SWIDTH 600 0
DWIDTH 7 0
BBX 8 12 -1 0
BITMAP
1E
00
08
00
1E
06
0A
12
1E
22
42
E7
ENDCHAR
STARTCHAR uni01E1
ENCODING 481
SWIDTH 600 0
DWIDTH 7 0
BBX 6 10 0 0
BITMAP
78
00
10
00
78
04
7C
88
88
74
ENDCHAR
STARTCHAR uni01E2
ENCODING 482
SWIDTH 600 0
DWIDTH 7 0
BBX 10 10 -2 0
BITMAP
0F00
0000
0FC0
0A40
1280
1700
2500
3800
4900
EF00
ENDCHAR
STARTCHAR uni01E3
ENCODING 483
SWIDTH 600 0
DWIDTH 7 0
BBX 8 8 -1 0
BITMAP
3C
00
76
09
7F
90
92
6C
ENDCHAR
STARTCHAR uni01E4
ENCODING 484
SWIDTH 600 0
DWIDTH 7 0
BBX 9 8 0 0
BITMAP
1E00
2200
4000
4000
8E00
BF80
8C00
7000
ENDCHAR
STARTCHAR uni01E5
ENCODING 485
SWIDTH 600 0
DWIDTH 7 0
BBX 7 9 0 -3
BITMAP
3A
44
84
84
88
78
FE
10
E0
ENDCHAR
STARTCHAR Gcaron
ENCODING 486
SWIDTH 600 0
DWIDTH 7 0
BBX 7 11 0 0
BITMAP
14
08
00
1E
22
40
40
8E
84
8C
70
ENDCHAR
STARTCHAR gcaron
ENCODING 487
SWIDTH 600 0
DWIDTH 7 0
BBX 7 12 0 -3
BITMAP
28
10
00
3A
44
84
84
88
78
08
10
E0
ENDCHAR
STARTCHAR uni01E8
ENCODING 488
SWIDTH 600 0
DWIDTH 7 0
BBX 8 11 -1 0
BITMAP
14
08
00
3B
12
2C
30
38
48
44
E6
ENDCHAR
STARTCHAR uni01E9
ENCODING 489
SWIDTH 600 0
DWIDTH 7 0
BBX 7 12 0 0
BITMAP
28
10
00
30
10
10
26
28
30
50
48
CC
ENDCHAR
STARTCHAR uni01EA
ENCODING 490
SWIDTH 600 0
DWIDTH 7 0
BBX 7 11 0 -3
BITMAP
1C
22
42
42
84
84
88
70
20
40
30
ENDCHAR
STARTCHAR uni01EB
ENCODING 491
SWIDTH 600 0
DWIDTH 7 0
BBX 6 9 0 -3
BITMAP
38
44
84
84
88
70
20
40
30
ENDCHAR
STARTCHAR uni01EC
ENCODING 492
SWIDTH 600 0
DWIDTH 7 0
BBX 7 13 0 -3
BITMAP
3C
00
1C
22
42
42
84
84
88
70
20
40
30
ENDCHAR
STARTCHAR uni01ED
ENCODING 493
SWIDTH 600 0
DWIDTH 7 0
BBX 6 11 0 -3
BITMAP
78
00
38
44
84
84
88
70
20
40
30
ENDCHAR
STARTCHAR uni01F0
ENCODING 496
SWIDTH 600 0
DWIDTH 7 0
BBX 7 12 -1 -3
BITMAP
14
08
00
3C
04
04
08
08
08
10
10
E0
ENDCHAR
STARTCHAR uni01F4
ENCODING 500
SWIDTH 600 0
DWIDTH 7 0
BBX 7 11 0 0
BITMAP
08
10
00
1E
22
40
40
8E
84
8C
70
ENDCHAR
STARTCHAR uni01F5
ENCODING 501
SWIDTH 600 0
DWIDTH 7 0
BBX 7 12 0 -3
BITMAP
08
10
00
3A
44
84
84
88
78
08
10
E0
ENDCHAR
STARTCHAR uni01F8
ENCODING 504
SWIDTH 600 0
DWIDTH 7 0
BBX 9 11 -1 0
BITMAP
0800
0400
0000
3380
1100
3200
2A00
2A00
4C00
4400
E400
ENDCHAR
STARTCHAR uni01F9
ENCODING 505
SWIDTH 600 0
DWIDTH 7 0
BBX 7 9 -1 0
BITMAP
10
08
00
5C
22
22
42
44
E6
ENDCHAR
STARTCHAR Aringacute
ENCODING 506
SWIDTH 600 0
DWIDTH 7 0
BBX 8 14 -1 0
BITMAP
02
04
00
02
05
02
1E
06
0A
12
1E
22
42
E7
ENDCHAR
STARTCHAR aringacute
ENCODING 507
SWIDTH 600 0
DWIDTH 7 0
BBX 6 13 0 0
BITMAP
08
10
00
10
28
10
00
78
04
7C
88
88
74
ENDCHAR
STARTCHAR AEacute
ENCODING 508
SWIDTH 600 0
DWIDTH 7 0
BBX 10 11 -2 0
BITMAP
0100
0200
0000
0FC0
0A40
1280
1700
2500
3800
4900
EF00
ENDCHAR
STARTCHAR aeacute
ENCODING 509
SWIDTH 600 0
DWIDTH 7 0
BBX 8 9 -1 0
BITMAP
04
08
00
76
09
7F
90
92
6C
ENDCHAR
STARTCHAR Oslashacute
ENCODING 510
SWIDTH 600 0
DWIDTH 7 0
BBX 9 11 -1 0
BITMAP
0200
0400
0000
0E80
1300
2500
2900
5200
6200
4400
B800
ENDCHAR
STARTCHAR oslashacute
ENCODING 511
SWIDTH 600 0
DWIDTH 7 0
BBX 6 11 0 -1
BITMAP
08
10
00
04
38
4C
94
A4
C8
70
80
ENDCHAR
STARTCHAR Scommaaccent
ENCODING 536
SWIDTH 600 0
DWIDTH 7 0
BBX 7 12 0 -4
BITMAP
1E
22
40
38
0C
04
88
F0
00
10
10
20
ENDCHAR
STARTCHAR scommaaccent
ENCODING 537
SWIDTH 600 0
DWIDTH 7 0
BBX 6 10 0 -4
BITMAP
38
44
30
08
88
70
00
20
20
40
ENDCHAR
STARTCHAR Tcommaaccent
ENCODING 538
SWIDTH 600 0
DWIDTH 7 0
BBX 8 12 0 -4
BITMAP
7F
49
8A
10
10
20
20
F8
00
10
10
20
ENDCHAR
STARTCHAR tcommaaccent
ENCODING 539
SWIDTH 600 0
DWIDTH 7 0
BBX 5 12 1 -4
BITMAP
20
20
F8
40
40
80
88
70
00
20
20
40
ENDCHAR
STARTCHAR uni021E
ENCODING 542
SWIDTH 600 0
DWIDTH 7 0
BBX 9 11 -1 0
BITMAP
0A00
0400
0000
3B80
1100
2200
3E00
2200
4400
4400
EE00
ENDCHAR
STARTCHAR uni021F
ENCODING 543
SWIDTH 600 0
DWIDTH 7 0
BBX 7 12 -1 0
BITMAP
28
10
00
18
08
10
1C
22
22
42
44
E6
ENDCHAR
STARTCHAR uni0226
ENCODING 550
SWIDTH 600 0
DWIDTH 7 0
BBX 8 10 -1 0
BITMAP
08
00
1E
06
0A
12
1E
22
42
E7
ENDCHAR
STARTCHAR uni0227
ENCODING 551
SWIDTH 600 0
DWIDTH 7 0
BBX 6 8 0 0
BITMAP
10
00
78
04
7C
88
88
74
ENDCHAR
STARTCHAR uni0228
ENCODING 552
SWIDTH 600 0
DWIDTH 7 0
BBX 8 11 0 -3
BITMAP
3F
11
24
38
28
40
44
FC
10
08
30
ENDCHAR
STARTCHAR uni0229
ENCODING 553
SWIDTH 600 0
DWIDTH 7 0
BBX 6 9 0 -3
BITMAP
38
44
FC
80
88
70
20
10
60
ENDCHAR
STARTCHAR uni022A
ENCODING 554
SWIDTH 600 0
DWIDTH 7 0
BBX 7 12 0 0
BITMAP
3C
00
0A
00
1C
22
42
42
84
84
88
70
ENDCHAR
STARTCHAR uni022B
ENCODING 555
SWIDTH 600 0
DWIDTH 7 0
BBX 6 10 0 0
BITMAP
78
00
28
00
38
44
84
84
88
70
ENDCHAR
STARTCHAR uni022C
ENCODING 556
SWIDTH 600 0
DWIDTH 7 0
BBX 7 13 0 0
BITMAP
1E
00
0A
14
00
1C
22
42
42
84
84
88
70
ENDCHAR
STARTCHAR uni022D
ENCODING 557
SWIDTH 600 0
DWIDTH 7 0
BBX 6 11 0 0
BITMAP
3C
00
14
28
00
38
44
84
84
88
70
ENDCHAR
STARTCHAR uni022E
ENCODING 558
SWIDTH 600 0
DWIDTH 7 0
BBX 7 10 0 0
BITMAP
08
00
1C
22
42
42
84
84
88
70
ENDCHAR
STARTCHAR uni022F
ENCODING 559
SWIDTH 600 0
DWIDTH 7 0
BBX 6 8 0 0
BITMAP
10
00
38
44
84
84
88
70
ENDCHAR
STARTCHAR uni0230
ENCODING 560
SWIDTH 600 0
DWIDTH 7 0
BBX 7 12 0 0
BITMAP
3C
00
08
00
1C
22
42
42
84
84
88
70
ENDCHAR
STARTCHAR uni0231
ENCODING 561
SWIDTH 600 0
DWIDTH 7 0
BBX 6 10 0 0
BITMAP
78
00
10
00
38
44
84
84
88
70
ENDCHAR
STARTCHAR uni0232
ENCODING 562
SWIDTH 600 0
DWIDTH 7 0
BBX 8 10 0 0
BITMAP
3C
00
E7
42
44
28
30
20
20
F0
ENDCHAR
STARTCHAR uni0233
ENCODING 563
SWIDTH 600 0
DWIDTH 7 0
BBX 8 11 -1 -3
BITMAP
3C
00
77
22
24
24
18
10
10
20
F0
ENDCHAR
STARTCHAR uni0250
ENCODING 592
SWIDTH 600 0
DWIDTH 7 0
BBX 6 6 0 0
BITMAP
B8
44
44
F8
80
78
ENDCHAR
STARTCHAR uni0259
ENCODING 601
SWIDTH 600 0
DWIDTH 7 0
BBX 6 6 0 0
BITMAP
38
44
04
FC
88
70
ENDCHAR
STARTCHAR uni025F
ENCODING 607
SWIDTH 600 0
DWIDTH 7 0
BBX 7 9 0 -3
BITMAP
1E
04
04
08
08
7C
10
10
E0
ENDCHAR
STARTCHAR uni0265
ENCODING 613
SWIDTH 600 0
DWIDTH 7 0
BBX 7 9 -1 -3
BITMAP
CE
44
84
88
88
70
10
20
30
ENDCHAR
STARTCHAR uni0275
ENCODING 629
SWIDTH 600 0
DWIDTH 7 0
BBX 6 6 0 0
BITMAP
38
44
FC
84
88
70
ENDCHAR
STARTCHAR uni0279
ENCODING 633
SWIDTH 600 0
DWIDTH 7 0
BBX 6 6 0 0
BITMAP
3C
08
08
10
90
E8
ENDCHAR
STARTCHAR uni0287
ENCODING 647
SWIDTH 600 0
DWIDTH 7 0
BBX 5 8 1 0
BITMAP
70
88
08
10
10
F8
20
20
ENDCHAR
STARTCHAR uni0289
ENCODING 649
SWIDTH 600 0
DWIDTH 7 0
BBX 6 6 0 0
BITMAP
CC
44
FC
88
88
74
ENDCHAR
STARTCHAR uni028C
ENCODING 652
SWIDTH 600 0
DWIDTH 7 0
BBX 7 6 0 0
BITMAP
08
08
14
24
44
EE
ENDCHAR
STARTCHAR uni028D
ENCODING 653
SWIDTH 600 0
DWIDTH 7 0
BBX 7 6 0 0
BITMAP
14
14
2C
54
44
EE
ENDCHAR
STARTCHAR uni028E
ENCODING 654
SWIDTH 600 0
DWIDTH 7 0
BBX 8 9 -1 0
BITMAP
0F
04
08
08
18
24
24
44
EE
ENDCHAR
STARTCHAR uni029E
ENCODING 670
SWIDTH 600 0
DWIDTH 7 0
BBX 7 9 0 -3
BITMAP
66
24
14
18
28
C8
10
10
18
ENDCHAR
STARTCHAR uni02BB
ENCODING 699
SWIDTH 600 0
DWIDTH 7 0
BBX 2 3 3 5
BITMAP
80
80
40
ENDCHAR
STARTCHAR afii57929
ENCODING 700
SWIDTH 600 0
DWIDTH 7 0
BBX 2 3 3 5
BITMAP
40
40
80
ENDCHAR
STARTCHAR afii64937
ENCODING 701
SWIDTH 600 0
DWIDTH 7 0
BBX 2 3 3 5
BITMAP
80
80
40
ENDCHAR
STARTCHAR circumflex
ENCODING 710
SWIDTH 600 0
DWIDTH 7 0
BBX 3 2 3 7
BITMAP
40
A0
ENDCHAR
STARTCHAR caron
ENCODING 711
SWIDTH 600 0
DWIDTH 7 0
BBX 3 2 3 7
BITMAP
A0
40
ENDCHAR
STARTCHAR uni02C8
ENCODING 712
SWIDTH 600 0
DWIDTH 7 0
BBX 2 3 4 5
BITMAP
40
40
80
ENDCHAR
STARTCHAR macron
ENCODING 713
SWIDTH 600 0
DWIDTH 7 0
BBX 4 1 2 7
BITMAP
F0
ENDCHAR
STARTCHAR uni02CA
ENCODING 714
SWIDTH 600 0
DWIDTH 7 0
BBX 2 2 4 7
BITMAP
40
80
ENDCHAR
STARTCHAR uni02CB
ENCODING 715
SWIDTH 600 0
DWIDTH 7 0
BBX 2 2 3 7
BITMAP
80
40
ENDCHAR
STARTCHAR uni02CD
ENCODING 717
SWIDTH 600 0
DWIDTH 7 0
BBX 4 1 2 -2
BITMAP
F0
ENDCHAR
STARTCHAR uni02CE
ENCODING 718
SWIDTH 600 0
DWIDTH 7 0
BBX 2 2 3 -3
BITMAP
80
40
ENDCHAR
STARTCHAR uni02CF
ENCODING 719
SWIDTH 600 0
DWIDTH 7 0
BBX 2 2 4 -3
BITMAP
40
80
ENDCHAR
STARTCHAR breve
ENCODING 728
SWIDTH 600 0
DWIDTH 7 0
BBX 4 2 3 7
BITMAP
90
60
ENDCHAR
STARTCHAR dotaccent
ENCODING 729
SWIDTH 600 0
DWIDTH 7 0
BBX 1 1 4 7
BITMAP
80
ENDCHAR
STARTCHAR ring
ENCODING 730
SWIDTH 600 0
DWIDTH 7 0
BBX 3 3 3 7
BITMAP
40
A0
40
ENDCHAR
STARTCHAR ogonek
ENCODING 731
SWIDTH 600 0
DWIDTH 7 0
BBX 3 3 2 -3
BITMAP
40
80
60
ENDCHAR
STARTCHAR tilde
ENCODING 732
SWIDTH 600 0
DWIDTH 7 0
BBX 4 2 2 7
BITMAP
50
A0
ENDCHAR
STARTCHAR hungarumlaut
ENCODING 733
SWIDTH 600 0
DWIDTH 7 0
BBX 5 2 2 7
BITMAP
48
90
ENDCHAR
STARTCHAR uni02EE
ENCODING 750
SWIDTH 600 0
DWIDTH 7 0
BBX 5 3 1 5
BITMAP
48
48
90
ENDCHAR
STARTCHAR uni037E
ENCODING 894
SWIDTH 600 0
DWIDTH 7 0
BBX 3 6 1 -1
BITMAP
20
00
00
40
40
80
ENDCHAR
STARTCHAR tonos
ENCODING 900
SWIDTH 600 0
DWIDTH 7 0
BBX 2 2 4 7
BITMAP
40
80
ENDCHAR
STARTCHAR dieresistonos
ENCODING 901
SWIDTH 600 0
DWIDTH 7 0
BBX 3 4 3 7
BITMAP
20
40
00
A0
ENDCHAR
STARTCHAR anoteleia
ENCODING 903
SWIDTH 600 0
DWIDTH 7 0
BBX 1 1 2 3
BITMAP
80
ENDCHAR
STARTCHAR mu
ENCODING 956
SWIDTH 600 0
DWIDTH 7 0
BBX 7 9 -1 -3
BITMAP
66
22
24
44
44
7A
80
80
80
ENDCHAR
STARTCHAR uni1E00
ENCODING 7680
SWIDTH 600 0
DWIDTH 7 0
BBX 8 12 -1 -4
BITMAP
1E
06
0A
12
1E
22
42
E7
00
08
14
08
ENDCHAR
STARTCHAR uni1E01
ENCODING 7681
SWIDTH 600 0
DWIDTH 7 0
BBX 6 10 0 -4
BITMAP
78
04
7C
88
88
74
00
10
28
10
ENDCHAR
STARTCHAR uni1E02
ENCODING 7682
SWIDTH 600 0
DWIDTH 7 0
BBX 8 10 -1 0
BITMAP
08
00
3E
11
22
3C
22
42
44
F8
ENDCHAR
STARTCHAR uni1E03
ENCODING 7683
SWIDTH 600 0
DWIDTH 7 0
BBX 7 11 -1 0
BITMAP
10
00
18
08
10
3C
22
22
42
44
B8
ENDCHAR
STARTCHAR uni1E04
ENCODING 7684
SWIDTH 600 0
DWIDTH 7 0
BBX 8 10 -1 -2
BITMAP
3E
11
22
3C
22
42
44
F8
00
10
ENDCHAR
STARTCHAR uni1E05
ENCODING 7685
SWIDTH 600 0
DWIDTH 7 0
BBX 7 11 -1 -2
BITMAP
18
08
10
3C
22
22
42
44
B8
00
10
ENDCHAR
STARTCHAR uni1E06
ENCODING 7686
SWIDTH 600 0
DWIDTH 7 0
BBX 8 10 -1 -2
BITMAP
3E
11
22
3C
22
42
44
F8
00
78
ENDCHAR
STARTCHAR uni1E07
ENCODING 7687
SWIDTH 600 0
DWIDTH 7 0
BBX 7 11 -1 -2
BITMAP
18
08
10
3C
22
22
42
44
B8
00
78
ENDCHAR
STARTCHAR uni1E08
ENCODING 7688
SWIDTH 600 0
DWIDTH 7 0
BBX 8 14 0 -3
BITMAP
04
08
00
1E
23
40
40
80
80
8C
70
20
10
60
ENDCHAR
STARTCHAR uni1E09
ENCODING 7689
SWIDTH 600 0
DWIDTH 7 0
BBX 6 12 0 -3
BITMAP
10
20
00
38
44
80
80
88
70
20
10
60
ENDCHAR
STARTCHAR uni1E0A
ENCODING 7690
SWIDTH 600 0
DWIDTH 7 0
BBX 8 10 -1 0
BITMAP
08
00
3E
11
21
21
22
42
44
F8
ENDCHAR
STARTCHAR uni1E0B
ENCODING 7691
SWIDTH 600 0
DWIDTH 7 0
BBX 8 11 0 0
BITMAP
02
00
03
01
02
34
4C
84
88
88
74
ENDCHAR
STARTCHAR uni1E0C
ENCODING 7692
SWIDTH 600 0
DWIDTH 7 0
BBX 8 10 -1 -2
BITMAP
3E
11
21
21
22
42
44
F8
00
10
ENDCHAR
STARTCHAR uni1E0D
ENCODING 7693
SWIDTH 600 0
DWIDTH 7 0
BBX 8 11 0 -2
BITMAP
03
01
02
34
4C
84
88
88
74
00
10
ENDCHAR
STARTCHAR uni1E0E
ENCODING 7694
SWIDTH 600 0
DWIDTH 7 0
BBX 8 10 -1 -2
BITMAP
3E
11
21
21
22
42
44
F8
00
78
ENDCHAR
STARTCHAR uni1E0F
ENCODING 7695
SWIDTH 600 0
DWIDTH 7 0
BBX 8 11 0 -2
BITMAP
03
01
02
34
4C
84
88
88
74
00
78
ENDCHAR
STARTCHAR uni1E10
ENCODING 7696
SWIDTH 600 0
DWIDTH 7 0
BBX 8 11 -1 -3
BITMAP
3E
11
21
21
22
42
44
F8
10
08
30
ENDCHAR
STARTCHAR uni1E11
ENCODING 7697
SWIDTH 600 0
DWIDTH 7 0
BBX 8 12 0 -3
BITMAP
03
01
02
34
4C
84
88
88
74
10
08
30
ENDCHAR
STARTCHAR uni1E12
ENCODING 7698
SWIDTH 600 0
DWIDTH 7 0
BBX 8 11 -1 -3
BITMAP
3E
11
21
21
22
42
44
F8
00
10
28
ENDCHAR
STARTCHAR uni1E13
ENCODING 7699
SWIDTH 600 0
DWIDTH 7 0
BBX 8 12 0 -3
BITMAP
03
01
02
34
4C
84
88
88
74
00
10
28
ENDCHAR
STARTCHAR uni1E14
ENCODING 7700
SWIDTH 600 0
DWIDTH 7 0
BBX 8 13 0 0
BITMAP
10
08
00
1E
00
3F
11
24
38
28
40
44
FC
ENDCHAR
STARTCHAR uni1E15
ENCODING 7701
SWIDTH 600 0
DWIDTH 7 0
BBX 6 11 0 0
BITMAP
20
10
00
78
00
38
44
FC
80
88
70
ENDCHAR
STARTCHAR uni1E16
ENCODING 7702
SWIDTH 600 0
DWIDTH 7 0
BBX 8 13 0 0
BITMAP
04
08
00
1E
00
3F
11
24
38
28
40
44
FC
ENDCHAR
STARTCHAR uni1E17
ENCODING 7703
SWIDTH 600 0
DWIDTH 7 0
BBX 6 11 0 0
BITMAP
10
20
00
78
00
38
44
FC
80
88
70
ENDCHAR
STARTCHAR uni1E18
ENCODING 7704
SWIDTH 600 0
DWIDTH 7 0
BBX 8 11 0 -3
BITMAP
3F
11
24
38
28
40
44
FC
00
10
28
ENDCHAR
STARTCHAR uni1E19
ENCODING 7705
SWIDTH 600 0
DWIDTH 7 0
BBX 6 9 0 -3
BITMAP
38
44
FC
80
88
70
00
20
50
ENDCHAR
STARTCHAR uni1E1A
ENCODING 7706
SWIDTH 600 0
DWIDTH 7 0
BBX 8 11 0 -3
BITMAP
3F
11
24
38
28
40
44
FC
00
28
50
ENDCHAR
STARTCHAR uni1E1B
ENCODING 7707
SWIDTH 600 0
DWIDTH 7 0
BBX 6 9 0 -3
BITMAP
38
44
FC
80
88
70
00
50
A0
ENDCHAR
STARTCHAR uni1E1C
ENCODING 7708
SWIDTH 600 0
DWIDTH 7 0
BBX 8 14 0 -3
BITMAP
12
0C
00
3F
11
24
38
28
40
44
FC
10
08
30
ENDCHAR
STARTCHAR uni1E1D
ENCODING 7709
SWIDTH 600 0
DWIDTH 7 0
BBX 6 12 0 -3
BITMAP
48
30
00
38
44
FC
80
88
70
20
10
60
ENDCHAR
STARTCHAR uni1E1E
ENCODING 7710
SWIDTH 600 0
DWIDTH 7 0
BBX 8 10 0 0
BITMAP
08
00
3F
11
24
38
28
40
40
F0
ENDCHAR
STARTCHAR uni1E1F
ENCODING 7711
SWIDTH 600 0
DWIDTH 7 0
BBX 7 11 0 0
BITMAP
08
00
0E
10
10
7C
20
20
40
40
F0
ENDCHAR
STARTCHAR uni1E20
ENCODING 7712
SWIDTH 600 0
DWIDTH 7 0
BBX 7 10 0 0
BITMAP
3C
00
1E
22
40
40
8E
84
8C
70
ENDCHAR
STARTCHAR uni1E21
ENCODING 7713
SWIDTH 600 0
DWIDTH 7 0
BBX 7 11 0 -3
BITMAP
3C
00
3A
44
84
84
88
78
08
10
E0
ENDCHAR
STARTCHAR uni1E22
ENCODING 7714
SWIDTH 600 0
DWIDTH 7 0
BBX 9 10 -1 0
BITMAP
0400
0000
3B80
1100
2200
3E00
2200
4400
4400
EE00
ENDCHAR
STARTCHAR uni1E23
ENCODING 7715
SWIDTH 600 0
DWIDTH 7 0
BBX 7 11 -1 0
BITMAP
10
00
18
08
10
1C
22
22
42
44
E6
ENDCHAR
STARTCHAR uni1E24
ENCODING 7716
SWIDTH 600 0
DWIDTH 7 0
BBX 9 10 -1 -2
BITMAP
3B80
1100
2200
3E00
2200
4400
4400
EE00
0000
1000
ENDCHAR
STARTCHAR uni1E25
ENCODING 7717
SWIDTH 600 0
DWIDTH 7 0
BBX 7 11 -1 -2
BITMAP
18
08
10
1C
22
22
42
44
E6
00
10
ENDCHAR
STARTCHAR uni1E26
ENCODING 7718
SWIDTH 600 0
DWIDTH 7 0
BBX 9 10 -1 0
BITMAP
0A00
0000
3B80
1100
2200
3E00
2200
4400
4400
EE00
ENDCHAR
STARTCHAR uni1E27
ENCODING 7719
SWIDTH 600 0
DWIDTH 7 0
BBX 7 11 -1 0
BITMAP
28
00
18
08
10
1C
22
22
42
44
E6
ENDCHAR
STARTCHAR uni1E28
ENCODING 7720
SWIDTH 600 0
DWIDTH 7 0
BBX 9 11 -1 -3
BITMAP
3B80
1100
2200
3E00
2200
4400
4400
EE00
1000
0800
3000
ENDCHAR
STARTCHAR uni1E29
ENCODING 7721
SWIDTH 600 0
DWIDTH 7 0
BBX 7 12 -1 -3
BITMAP
18
08
10
1C
22
22
42
44
E6
10
08
30
ENDCHAR
STARTCHAR uni1E2A
ENCODING 7722
SWIDTH 600 0
DWIDTH 7 0
BBX 9 11 -1 -3
BITMAP
3B80
1100
2200
3E00
2200
4400
4400
EE00
0000
2400
1800
ENDCHAR
STARTCHAR uni1E2B
ENCODING 7723
SWIDTH 600 0
DWIDTH 7 0
BBX 7 12 -1 -3
BITMAP
18
08
10
1C
22
22
42
44
E6
00
24
18
ENDCHAR
STARTCHAR uni1E2C
ENCODING 7724
SWIDTH 600 0
DWIDTH 7 0
BBX 7 11 0 -3
BITMAP
3E
08
10
10
10
20
20
F8
00
28
50
ENDCHAR
STARTCHAR uni1E2D
ENCODING 7725
SWIDTH 600 0
DWIDTH 7 0
BBX 5 12 0 -3
BITMAP
08
00
00
38
10
10
20
20
F8
00
50
A0
ENDCHAR
STARTCHAR uni1E2E
ENCODING 7726
SWIDTH 600 0
DWIDTH 7 0
BBX 7 13 0 0
BITMAP
04
08
00
0A
00
3E
08
10
10
10
20
20
F8
ENDCHAR
STARTCHAR uni1E2F
ENCODING 7727
SWIDTH 600 0
DWIDTH 7 0
BBX 5 11 0 0
BITMAP
08
10
00
28
00
38
10
10
20
20
F8
ENDCHAR
STARTCHAR uni1E30
ENCODING 7728
SWIDTH 600 0
DWIDTH 7 0
BBX 8 11 -1 0
BITMAP
04
08
00
3B
12
2C
30
38
48
44
E6
ENDCHAR
STARTCHAR uni1E31
ENCODING 7729
SWIDTH 600 0
DWIDTH 7 0
BBX 7 12 0 0
BITMAP
08
10
00
30
10
10
26
28
30
50
48
CC
ENDCHAR
STARTCHAR uni1E32
ENCODING 7730
SWIDTH 600 0
DWIDTH 7 0
BBX 8 10 -1 -2
BITMAP
3B
12
2C
30
38
48
44
E6
00
10
ENDCHAR
STARTCHAR uni1E33
ENCODING 7731
SWIDTH 600 0
DWIDTH 7 0
BBX 7 11 0 -2
BITMAP
30
10
10
26
28
30
50
48
CC
00
10
ENDCHAR
STARTCHAR uni1E34
ENCODING 7732
SWIDTH 600 0
DWIDTH 7 0
BBX 8 10 -1 -2
BITMAP
3B
12
2C
30
38
48
44
E6
00
3C
ENDCHAR
STARTCHAR uni1E35
ENCODING 7733
SWIDTH 600 0
DWIDTH 7 0
BBX 7 11 0 -2
BITMAP
30
10
10
26
28
30
50
48
CC
00
78
ENDCHAR
STARTCHAR uni1E36
ENCODING 7734
SWIDTH 600 0
DWIDTH 7 0
BBX 7 10 0 -2
BITMAP
38
10
20
20
20
42
44
FC
00
10
ENDCHAR
STARTCHAR uni1E37
ENCODING 7735
SWIDTH 600 0
DWIDTH 7 0
BBX 5 11 0 -2
BITMAP
38
08
08
10
10
10
20
20
F8
00
20
ENDCHAR
STARTCHAR uni1E38
ENCODING 7736
SWIDTH 600 0
DWIDTH 7 0
BBX 7 12 0 -2
BITMAP
78
00
38
10
20
20
20
42
44
FC
00
10
ENDCHAR
STARTCHAR uni1E39
ENCODING 7737
SWIDTH 600 0
DWIDTH 7 0
BBX 5 13 0 -2
BITMAP
78
00
38
08
08
10
10
10
20
20
F8
00
20
ENDCHAR
STARTCHAR uni1E3A
ENCODING 7738
SWIDTH 600 0
DWIDTH 7 0
BBX 7 10 0 -2
BITMAP
38
10
20
20
20
42
44
FC
00
78
ENDCHAR
STARTCHAR uni1E3B
ENCODING 7739
SWIDTH 600 0
DWIDTH 7 0
BBX 5 11 0 -2
BITMAP
38
08
08
10
10
10
20
20
F8
00
78
ENDCHAR
STARTCHAR uni1E3C
ENCODING 7740
SWIDTH 600 0
DWIDTH 7 0
BBX 7 11 0 -3
BITMAP
38
10
20
20
20
42
44
FC
00
10
28
ENDCHAR
STARTCHAR uni1E3D
ENCODING 7741
SWIDTH 600 0
DWIDTH 7 0
BBX 5 12 0 -3
BITMAP
38
08
08
10
10
10
20
20
F8
00
20
50
ENDCHAR
STARTCHAR uni1E3E
ENCODING 7742
SWIDTH 600 0
DWIDTH 7 0
BBX 9 11 -1 0
BITMAP
0400
0800
0000
3180
1B00
3500
2A00
2A00
4200
4400
EE00
ENDCHAR
STARTCHAR uni1E3F
ENCODING 7743
SWIDTH 600 0
DWIDTH 7 0
BBX 7 9 -1 0
BITMAP
08
10
00
54
2A
2A
4A
54
D6
ENDCHAR
STARTCHAR uni1E40
ENCODING 7744
SWIDTH 600 0
DWIDTH 7 0
BBX 9 10 -1 0
BITMAP
0400
0000
3180
1B00
3500
2A00
2A00
4200
4400
EE00
ENDCHAR
STARTCHAR uni1E41
ENCODING 7745
SWIDTH 600 0
DWIDTH 7 0
BBX 7 8 -1 0
BITMAP
10
00
54
2A
2A
4A
54
D6
ENDCHAR
STARTCHAR uni1E42
ENCODING 7746
SWIDTH 600 0
DWIDTH 7 0
BBX 9 10 -1 -2
BITMAP
3180
1B00
3500
2A00
2A00
4200
4400
EE00
0000
1000
ENDCHAR
STARTCHAR uni1E43
ENCODING 7747
SWIDTH 600 0
DWIDTH 7 0
BBX 7 8 -1 -2
BITMAP
54
2A
2A
4A
54
D6
00
10
ENDCHAR
STARTCHAR uni1E44
ENCODING 7748
SWIDTH 600 0
DWIDTH 7 0
BBX 9 10 -1 0
BITMAP
0800
0000
3380
1100
3200
2A00
2A00
4C00
4400
E400
ENDCHAR
STARTCHAR uni1E45
ENCODING 7749
SWIDTH 600 0
DWIDTH 7 0
BBX 7 8 -1 0
BITMAP
10
00
5C
22
22
42
44
E6
ENDCHAR
STARTCHAR uni1E46
ENCODING 7750
SWIDTH 600 0
DWIDTH 7 0
BBX 9 10 -1 -2
BITMAP
3380
1100
3200
2A00
2A00
4C00
4400
E400
0000
1000
ENDCHAR
STARTCHAR uni1E47
ENCODING 7751
SWIDTH 600 0
DWIDTH 7 0
BBX 7 8 -1 -2
BITMAP
5C
22
22
42
44
E6
00
10
ENDCHAR
STARTCHAR uni1E48
ENCODING 7752
SWIDTH 600 0
DWIDTH 7 0
BBX 9 10 -1 -2
BITMAP
3380
1100
3200
2A00
2A00
4C00
4400
E400
0000
3C00
ENDCHAR
STARTCHAR uni1E49
ENCODING 7753
SWIDTH 600 0
DWIDTH 7 0
BBX 7 8 -1 -2
BITMAP
5C
22
22
42
44
E6
00
78
ENDCHAR
STARTCHAR uni1E4A
ENCODING 7754
SWIDTH 600 0
DWIDTH 7 0
BBX 9 11 -1 -3
BITMAP
3380
1100
3200
2A00
2A00
4C00
4400
E400
0000
1000
2800
ENDCHAR
STARTCHAR uni1E4B
ENCODING 7755
SWIDTH 600 0
DWIDTH 7 0
BBX 7 9 -1 -3
BITMAP
5C
22
22
42
44
E6
00
10
28
ENDCHAR
STARTCHAR uni1E4C
ENCODING 7756
SWIDTH 600 0
DWIDTH 7 0
BBX 7 14 0 0
BITMAP
04
08
00
0A
14
00
1C
22
42
42
84
84
88
70
ENDCHAR
STARTCHAR uni1E4D
ENCODING 7757
SWIDTH 600 0
DWIDTH 7 0
BBX 6 12 0 0
BITMAP
08
10
00
14
28
00
38
44
84
84
88
70
ENDCHAR
STARTCHAR uni1E4E
ENCODING 7758
SWIDTH 600 0
DWIDTH 7 0
BBX 7 13 0 0
BITMAP
14
00
0A
14
00
1C
22
42
42
84
84
88
70
ENDCHAR
STARTCHAR uni1E4F
ENCODING 7759
SWIDTH 600 0
DWIDTH 7 0
BBX 6 11 0 0
BITMAP
28
00
14
28
00
38
44
84
84
88
70
ENDCHAR
STARTCHAR uni1E50
ENCODING 7760
SWIDTH 600 0
DWIDTH 7 0
BBX 7 13 0 0
BITMAP
10
08
00
3C
00
1C
22
42
42
84
84
88
70
ENDCHAR
STARTCHAR uni1E51
ENCODING 7761
SWIDTH 600 0
DWIDTH 7 0
BBX 6 11 0 0
BITMAP
20
10
00
78
00
38
44
84
84
88
70
ENDCHAR
STARTCHAR uni1E52
ENCODING 7762
SWIDTH 600 0
DWIDTH 7 0
BBX 7 13 0 0
BITMAP
08
10
00
3C
00
1C
22
42
42
84
84
88
70
ENDCHAR
STARTCHAR uni1E53
ENCODING 7763
SWIDTH 600 0
DWIDTH 7 0
BBX 6 11 0 0
BITMAP
10
20
00
78
00
38
44
84
84
88
70
ENDCHAR
STARTCHAR uni1E54
ENCODING 7764
SWIDTH 600 0
DWIDTH 7 0
BBX 8 11 -1 0
BITMAP
04
08
00
3E
11
21
22
3C
40
40
F0
ENDCHAR
STARTCHAR uni1E55
ENCODING 7765
SWIDTH 600 0
DWIDTH 7 0
BBX 8 12 -2 -3
BITMAP
04
08
00
2E
11
11
21
22
3C
20
40
E0
ENDCHAR
STARTCHAR uni1E56
ENCODING 7766
SWIDTH 600 0
DWIDTH 7 0
BBX 8 10 -1 0
BITMAP
08
00
3E
11
21
22
3C
40
40
F0
ENDCHAR
STARTCHAR uni1E57
ENCODING 7767
SWIDTH 600 0
DWIDTH 7 0
BBX 8 11 -2 -3
BITMAP
08
00
2E
11
11
21
22
3C
20
40
E0
ENDCHAR
STARTCHAR uni1E58
ENCODING 7768
SWIDTH 600 0
DWIDTH 7 0
BBX 8 10 -1 0
BITMAP
08
00
3E
11
21
3E
24
44
42
E7
ENDCHAR
STARTCHAR uni1E59
ENCODING 7769
SWIDTH 600 0
DWIDTH 7 0
BBX 6 8 0 0
BITMAP
10
00
5C
24
20
40
40
F0
ENDCHAR
STARTCHAR uni1E5A
ENCODING 7770
SWIDTH 600 0
DWIDTH 7 0
BBX 8 10 -1 -2
BITMAP
3E
11
21
3E
24
44
42
E7
00
10
ENDCHAR
STARTCHAR uni1E5B
ENCODING 7771
SWIDTH 600 0
DWIDTH 7 0
BBX 6 8 0 -2
BITMAP
5C
24
20
40
40
F0
00
20
ENDCHAR
STARTCHAR uni1E5C
ENCODING 7772
SWIDTH 600 0
DWIDTH 7 0
BBX 8 12 -1 -2
BITMAP
1E
00
3E
11
21
3E
24
44
42
E7
00
10
ENDCHAR
STARTCHAR uni1E5D
ENCODING 7773
SWIDTH 600 0
DWIDTH 7 0
BBX 6 10 0 -2
BITMAP
78
00
5C
24
20
40
40
F0
00
20
ENDCHAR
STARTCHAR uni1E5E
ENCODING 7774
SWIDTH 600 0
DWIDTH 7 0
BBX 8 10 -1 -2
BITMAP
3E
11
21
3E
24
44
42
E7
00
3C
ENDCHAR
STARTCHAR uni1E5F
ENCODING 7775
SWIDTH 600 0
DWIDTH 7 0
BBX 6 8 0 -2
BITMAP
5C
24
20
40
40
F0
00
F0
ENDCHAR
STARTCHAR uni1E60
ENCODING 7776
SWIDTH 600 0
DWIDTH 7 0
BBX 7 10 0 0
BITMAP
08
00
1E
22
40
38
0C
04
88
F0
ENDCHAR
STARTCHAR uni1E61
ENCODING 7777
SWIDTH 600 0
DWIDTH 7 0
BBX 6 8 0 0
BITMAP
10
00
38
44
30
08
88
70
ENDCHAR
STARTCHAR uni1E62
ENCODING 7778
SWIDTH 600 0
DWIDTH 7 0
BBX 7 10 0 -2
BITMAP
1E
22
40
38
0C
04
88
F0
00
20
ENDCHAR
STARTCHAR uni1E63
ENCODING 7779
SWIDTH 600 0
DWIDTH 7 0
BBX 6 8 0 -2
BITMAP
38
44
30
08
88
70
00
20
ENDCHAR
STARTCHAR uni1E64
ENCODING 7780
SWIDTH 600 0
DWIDTH 7 0
BBX 7 13 0 0
BITMAP
10
00
08
10
00
1E
22
40
38
0C
04
88
F0
ENDCHAR
STARTCHAR uni1E65
ENCODING 7781
SWIDTH 600 0
DWIDTH 7 0
BBX 6 11 0 0
BITMAP
10
00
08
10
00
38
44
30
08
88
70
ENDCHAR
STARTCHAR uni1E66
ENCODING 7782
SWIDTH 600 0
DWIDTH 7 0
BBX 7 12 0 0
BITMAP
08
00
14
08
00
1E
22
40
38
04
88
F0
ENDCHAR
STARTCHAR uni1E67
ENCODING 7783
SWIDTH 600 0
DWIDTH 7 0
BBX 6 11 0 0
BITMAP
10
00
28
10
00
38
44
30
08
88
70
ENDCHAR
STARTCHAR uni1E68
ENCODING 7784
SWIDTH 600 0
DWIDTH 7 0
BBX 7 12 0 -2
BITMAP
08
00
1E
22
40
38
0C
04
88
F0
00
20
ENDCHAR
STARTCHAR uni1E69
ENCODING 7785
SWIDTH 600 0
DWIDTH 7 0
BBX 6 10 0 -2
BITMAP
10
00
38
44
30
08
88
70
00
20
ENDCHAR
STARTCHAR uni1E6A
ENCODING 7786
SWIDTH 600 0
DWIDTH 7 0
BBX 8 10 0 0
BITMAP
08
00
7F
49
8A
10
10
20
20
F8
ENDCHAR
STARTCHAR uni1E6B
ENCODING 7787
SWIDTH 600 0
DWIDTH 7 0
BBX 5 10 1 0
BITMAP
20
00
20
20
F8
40
40
80
88
70
ENDCHAR
STARTCHAR uni1E6C
ENCODING 7788
SWIDTH 600 0
DWIDTH 7 0
BBX 8 10 0 -2
BITMAP
7F
49
8A
10
10
20
20
F8
00
10
ENDCHAR
STARTCHAR uni1E6D
ENCODING 7789
SWIDTH 600 0
DWIDTH 7 0
BBX 5 10 1 -2
BITMAP
20
20
F8
40
40
80
88
70
00
20
ENDCHAR
STARTCHAR uni1E6E
ENCODING 7790
SWIDTH 600 0
DWIDTH 7 0
BBX 8 10 0 -2
BITMAP
7F
49
8A
10
10
20
20
F8
00
78
ENDCHAR
STARTCHAR uni1E6F
ENCODING 7791
SWIDTH 600 0
DWIDTH 7 0
BBX 5 10 1 -2
BITMAP
20
20
F8
40
40
80
88
70
00
F0
ENDCHAR
STARTCHAR uni1E70
ENCODING 7792
SWIDTH 600 0
DWIDTH 7 0
BBX 8 11 0 -3
BITMAP
7F
49
8A
10
10
20
20
F8
00
10
28
ENDCHAR
STARTCHAR uni1E71
ENCODING 7793
SWIDTH 600 0
DWIDTH 7 0
BBX 5 11 1 -3
BITMAP
20
20
F8
40
40
80
88
70
00
20
50
ENDCHAR
STARTCHAR uni1E72
ENCODING 7794
SWIDTH 600 0
DWIDTH 7 0
BBX 8 10 0 -2
BITMAP
77
22
44
44
44
88
88
70
00
28
ENDCHAR
STARTCHAR uni1E73
ENCODING 7795
SWIDTH 600 0
DWIDTH 7 0
BBX 6 8 0 -2
BITMAP
CC
44
48
88
88
74
00
28
ENDCHAR
STARTCHAR uni1E74
ENCODING 7796
SWIDTH 600 0
DWIDTH 7 0
BBX 8 11 0 -3
BITMAP
77
22
44
44
44
88
88
70
00
28
50
ENDCHAR
STARTCHAR uni1E75
ENCODING 7797
SWIDTH 600 0
DWIDTH 7 0
BBX 6 9 0 -3
BITMAP
CC
44
48
88
88
74
00
28
50
ENDCHAR
STARTCHAR uni1E76
ENCODING 7798
SWIDTH 600 0
DWIDTH 7 0
BBX 8 11 0 -3
BITMAP
77
22
44
44
44
88
88
70
00
10
28
ENDCHAR
STARTCHAR uni1E77
ENCODING 7799
SWIDTH 600 0
DWIDTH 7 0
BBX 6 9 0 -3
BITMAP
CC
44
48
88
88
74
00
10
28
ENDCHAR
STARTCHAR uni1E78
ENCODING 7800
SWIDTH 600 0
DWIDTH 7 0
BBX 8 14 0 0
BITMAP
04
08
00
0A
14
00
77
22
44
44
44
88
88
70
ENDCHAR
STARTCHAR uni1E79
ENCODING 7801
SWIDTH 600 0
DWIDTH 7 0
BBX 6 12 0 0
BITMAP
10
20
00
28
50
00
CC
44
48
88
88
74
ENDCHAR
STARTCHAR uni1E7A
ENCODING 7802
SWIDTH 600 0
DWIDTH 7 0
BBX 8 12 0 0
BITMAP
14
00
3C
00
77
22
44
44
44
88
88
70
ENDCHAR
STARTCHAR uni1E7B
ENCODING 7803
SWIDTH 600 0
DWIDTH 7 0
BBX 6 10 0 0
BITMAP
28
00
78
00
CC
44
48
88
88
74
ENDCHAR
STARTCHAR uni1E7C
ENCODING 7804
SWIDTH 600 0
DWIDTH 7 0
BBX 8 11 0 0
BITMAP
14
28
00
E7
42
44
48
28
30
20
20
ENDCHAR
STARTCHAR uni1E7D
ENCODING 7805
SWIDTH 600 0
DWIDTH 7 0
BBX 7 9 0 0
BITMAP
14
28
00
EE
44
48
50
20
20
ENDCHAR
STARTCHAR uni1E7E
ENCODING 7806
SWIDTH 600 0
DWIDTH 7 0
BBX 8 10 0 -2
BITMAP
E7
42
44
48
28
30
20
20
00
10
ENDCHAR
STARTCHAR uni1E7F
ENCODING 7807
SWIDTH 600 0
DWIDTH 7 0
BBX 7 8 0 -2
BITMAP
EE
44
48
50
20
20
00
20
ENDCHAR
STARTCHAR Wgrave
ENCODING 7808
SWIDTH 600 0
DWIDTH 7 0
BBX 9 11 0 0
BITMAP
1000
0800
0000
F380
4100
4A00
4A00
5400
5400
6800
4800
ENDCHAR
STARTCHAR wgrave
ENCODING 7809
SWIDTH 600 0
DWIDTH 7 0
BBX 7 9 0 0
BITMAP
20
10
00
EE
44
54
68
50
50
ENDCHAR
STARTCHAR Wacute
ENCODING 7810
SWIDTH 600 0
DWIDTH 7 0
BBX 9 11 0 0
BITMAP
0400
0800
0000
F380
4100
4A00
4A00
5400
5400
6800
4800
ENDCHAR
STARTCHAR wacute
ENCODING 7811
SWIDTH 600 0
DWIDTH 7 0
BBX 7 9 0 0
BITMAP
08
10
00
EE
44
54
68
50
50
ENDCHAR
STARTCHAR Wdieresis
ENCODING 7812
SWIDTH 600 0
DWIDTH 7 0
BBX 9 10 0 0
BITMAP
1400
0000
F380
4100
4A00
4A00
5400
5400
6800
4800
ENDCHAR
STARTCHAR wdieresis
ENCODING 7813
SWIDTH 600 0
DWIDTH 7 0
BBX 7 8 0 0
BITMAP
28
00
EE
44
54
68
50
50
ENDCHAR
STARTCHAR uni1E86
ENCODING 7814
SWIDTH 600 0
DWIDTH 7 0
BBX 9 10 0 0
BITMAP
0800
0000
F380
4100
4A00
4A00
5400
5400
6800
4800
ENDCHAR
STARTCHAR uni1E87
ENCODING 7815
SWIDTH 600 0
DWIDTH 7 0
BBX 7 8 0 0
BITMAP
10
00
EE
44
54
68
50
50
ENDCHAR
STARTCHAR uni1E88
ENCODING 7816
SWIDTH 600 0
DWIDTH 7 0
BBX 9 10 0 -2
BITMAP
F380
4100
4A00
4A00
5400
5400
6800
4800
0000
1000
ENDCHAR
STARTCHAR uni1E89
ENCODING 7817
SWIDTH 600 0
DWIDTH 7 0
BBX 7 8 0 -2
BITMAP
EE
44
54
68
50
50
00
20
ENDCHAR
STARTCHAR uni1E8A
ENCODING 7818
SWIDTH 600 0
DWIDTH 7 0
BBX 9 10 0 0
BITMAP
0800
0000
3B80
1200
1400
0800
1400
2400
4200
E600
ENDCHAR
STARTCHAR uni1E8B
ENCODING 7819
SWIDTH 600 0
DWIDTH 7 0
BBX 8 8 -1 0
BITMAP
08
00
77
14
18
28
44
C6
ENDCHAR
STARTCHAR uni1E8C
ENCODING 7820
SWIDTH 600 0
DWIDTH 7 0
BBX 9 10 0 0
BITMAP
1400
0000
3B80
1200
1400
0800
1400
2400
4200
E600
ENDCHAR
STARTCHAR uni1E8D
ENCODING 7821
SWIDTH 600 0
DWIDTH 7 0
BBX 8 8 -1 0
BITMAP
14
00
77
14
18
28
44
C6
ENDCHAR
STARTCHAR uni1E8E
ENCODING 7822
SWIDTH 600 0
DWIDTH 7 0
BBX 8 10 0 0
BITMAP
10
00
E7
42
44
28
30
20
20
F0
ENDCHAR
STARTCHAR uni1E8F
ENCODING 7823
SWIDTH 600 0
DWIDTH 7 0
BBX 8 11 -1 -3
BITMAP
08
00
77
22
24
24
18
10
10
20
F0
ENDCHAR
STARTCHAR uni1E90
ENCODING 7824
SWIDTH 600 0
DWIDTH 7 0
BBX 7 11 0 0
BITMAP
10
28
00
3E
44
48
10
20
44
84
F8
ENDCHAR
STARTCHAR uni1E91
ENCODING 7825
SWIDTH 600 0
DWIDTH 7 0
BBX 6 9 0 0
BITMAP
10
28
00
7C
48
10
20
48
F8
ENDCHAR
STARTCHAR uni1E92
ENCODING 7826
SWIDTH 600 0
DWIDTH 7 0
BBX 7 10 0 -2
BITMAP
3E
44
48
10
20
44
84
F8
00
10
ENDCHAR
STARTCHAR uni1E93
ENCODING 7827
SWIDTH 600 0
DWIDTH 7 0
BBX 6 8 0 -2
BITMAP
7C
48
10
20
48
F8
00
20
ENDCHAR
STARTCHAR uni1E94
ENCODING 7828
SWIDTH 600 0
DWIDTH 7 0
BBX 7 10 0 -2
BITMAP
3E
44
48
10
20
44
84
F8
00
78
ENDCHAR
STARTCHAR uni1E95
ENCODING 7829
SWIDTH 600 0
DWIDTH 7 0
BBX 6 8 0 -2
BITMAP
7C
48
10
20
48
F8
00
78
ENDCHAR
STARTCHAR uni1E96
ENCODING 7830
SWIDTH 600 0
DWIDTH 7 0
BBX 7 11 -1 -2
BITMAP
18
08
10
1C
22
22
42
44
E6
00
3C
ENDCHAR
STARTCHAR uni1E97
ENCODING 7831
SWIDTH 600 0
DWIDTH 7 0
BBX 5 10 1 0
BITMAP
50
00
20
20
F8
40
40
80
88
70
ENDCHAR
STARTCHAR uni1E98
ENCODING 7832
SWIDTH 600 0
DWIDTH 7 0
BBX 7 10 0 0
BITMAP
10
28
10
00
EE
44
54
68
50
50
ENDCHAR
STARTCHAR uni1E99
ENCODING 7833
SWIDTH 600 0
DWIDTH 7 0
BBX 8 13 -1 -3
BITMAP
08
14
08
00
77
22
24
24
18
10
10
20
F0
ENDCHAR
STARTCHAR uni1EA0
ENCODING 7840
SWIDTH 600 0
DWIDTH 7 0
BBX 8 10 -1 -2
BITMAP
1E
06
0A
12
1E
22
42
E7
00
08
ENDCHAR
STARTCHAR uni1EA1
ENCODING 7841
SWIDTH 600 0
DWIDTH 7 0
BBX 6 8 0 -2
BITMAP
78
04
7C
88
88
74
00
10
ENDCHAR
STARTCHAR uni1EA4
ENCODING 7844
SWIDTH 600 0
DWIDTH 7 0
BBX 8 14 -1 0
BITMAP
02
04
00
02
05
00
1E
06
0A
12
1E
22
42
E7
ENDCHAR
STARTCHAR uni1EA5
ENCODING 7845
SWIDTH 600 0
DWIDTH 7 0
BBX 6 12 0 0
BITMAP
08
10
00
10
28
00
78
04
7C
88
88
74
ENDCHAR
STARTCHAR uni1EA6
ENCODING 7846
SWIDTH 600 0
DWIDTH 7 0
BBX 8 14 -1 0
BITMAP
08
04
00
02
05
00
1E
06
0A
12
1E
22
42
E7
ENDCHAR
STARTCHAR uni1EA7
ENCODING 7847
SWIDTH 600 0
DWIDTH 7 0
BBX 6 12 0 0
BITMAP
20
10
00
10
28
00
78
04
7C
88
88
74
ENDCHAR
STARTCHAR uni1EAA
ENCODING 7850
SWIDTH 600 0
DWIDTH 7 0
BBX 8 14 -1 0
BITMAP
05
0A
00
02
05
00
1E
06
0A
12
1E
22
42
E7
ENDCHAR
STARTCHAR uni1EAB
ENCODING 7851
SWIDTH 600 0
DWIDTH 7 0
BBX 6 12 0 0
BITMAP
14
28
00
10
28
00
78
04
7C
88
88
74
ENDCHAR
STARTCHAR uni1EAC
ENCODING 7852
SWIDTH 600 0
DWIDTH 7 0
BBX 8 13 -1 -2
BITMAP
08
14
00
1E
06
0A
12
1E
22
42
E7
00
08
ENDCHAR
STARTCHAR uni1EAD
ENCODING 7853
SWIDTH 600 0
DWIDTH 7 0
BBX 6 11 0 -2
BITMAP
10
28
00
78
04
7C
88
88
74
00
10
ENDCHAR
STARTCHAR uni1EAE
ENCODING 7854
SWIDTH 600 0
DWIDTH 7 0
BBX 8 14 -1 0
BITMAP
04
08
00
12
0C
00
1E
06
0A
12
1E
22
42
E7
ENDCHAR
STARTCHAR uni1EAF
ENCODING 7855
SWIDTH 600 0
DWIDTH 7 0
BBX 6 12 0 0
BITMAP
10
20
00
48
30
00
78
04
7C
88
88
74
ENDCHAR
STARTCHAR uni1EB0
ENCODING 7856
SWIDTH 600 0
DWIDTH 7 0
BBX 8 14 -1 0
BITMAP
10
08
00
12
0C
00
1E
06
0A
12
1E
22
42
E7
ENDCHAR
STARTCHAR uni1EB1
ENCODING 7857
SWIDTH 600 0
DWIDTH 7 0
BBX 6 12 0 0
BITMAP
20
10
00
48
30
00
78
04
7C
88
88
74
ENDCHAR
STARTCHAR uni1EB4
ENCODING 7860
SWIDTH 600 0
DWIDTH 7 0
BBX 8 14 -1 0
BITMAP
0A
14
00
12
0C
00
1E
06
0A
12
1E
22
42
E7
ENDCHAR
STARTCHAR uni1EB5
ENCODING 7861
SWIDTH 600 0
DWIDTH 7 0
BBX 6 12 0 0
BITMAP
28
50
00
48
30
00
78
04
7C
88
88
74
ENDCHAR
STARTCHAR uni1EB6
ENCODING 7862
SWIDTH 600 0
DWIDTH 7 0
BBX 8 13 -1 -2
BITMAP
12
0C
00
1E
06
0A
12
1E
22
42
E7
00
08
ENDCHAR
STARTCHAR uni1EB7
ENCODING 7863
SWIDTH 600 0
DWIDTH 7 0
BBX 6 11 0 -2
BITMAP
48
30
00
78
04
7C
88
88
74
00
10
ENDCHAR
STARTCHAR uni1EB8
ENCODING 7864
SWIDTH 600 0
DWIDTH 7 0
BBX 8 10 0 -2
BITMAP
3F
11
24
38
28
40
44
FC
00
10
ENDCHAR
STARTCHAR uni1EB9
ENCODING 7865
SWIDTH 600 0
DWIDTH 7 0
BBX 6 8 0 -2
BITMAP
38
44
FC
80
88
70
00
20
ENDCHAR
STARTCHAR uni1EBC
ENCODING 7868
SWIDTH 600 0
DWIDTH 7 0
BBX 8 11 0 0
BITMAP
0A
14
00
3F
11
24
38
28
40
44
FC
ENDCHAR
STARTCHAR uni1EBD
ENCODING 7869
SWIDTH 600 0
DWIDTH 7 0
BBX 6 9 0 0
BITMAP
14
28
00
38
44
FC
80
88
70
ENDCHAR
STARTCHAR uni1EBE
ENCODING 7870
SWIDTH 600 0
DWIDTH 7 0
BBX 8 14 0 0
BITMAP
04
08
00
04
0A
00
3F
11
24
38
28
44
44
FC
ENDCHAR
STARTCHAR uni1EBF
ENCODING 7871
SWIDTH 600 0
DWIDTH 7 0
BBX 6 12 0 0
BITMAP
08
10
00
10
28
00
38
44
FC
80
88
70
ENDCHAR
STARTCHAR uni1EC0
ENCODING 7872
SWIDTH 600 0
DWIDTH 7 0
BBX 8 14 0 0
BITMAP
08
04
00
04
0A
00
3F
11
24
38
28
44
44
FC
ENDCHAR
STARTCHAR uni1EC1
ENCODING 7873
SWIDTH 600 0
DWIDTH 7 0
BBX 6 12 0 0
BITMAP
20
10
00
10
28
00
38
44
FC
80
88
70
ENDCHAR
STARTCHAR uni1EC4
ENCODING 7876
SWIDTH 600 0
DWIDTH 7 0
BBX 8 14 0 0
BITMAP
0A
14
00
04
0A
00
3F
11
24
38
28
44
44
FC
ENDCHAR
STARTCHAR uni1EC5
ENCODING 7877
SWIDTH 600 0
DWIDTH 7 0
BBX 6 12 0 0
BITMAP
14
28
00
10
28
00
38
44
FC
80
88
70
ENDCHAR
STARTCHAR uni1EC6
ENCODING 7878
SWIDTH 600 0
DWIDTH 7 0
BBX 8 13 0 -2
BITMAP
08
14
00
3F
11
24
38
28
40
44
FC
00
10
ENDCHAR
STARTCHAR uni1EC7
ENCODING 7879
SWIDTH 600 0
DWIDTH 7 0
BBX 6 11 0 -2
BITMAP
10
28
00
38
44
FC
80
88
70
00
20
ENDCHAR
STARTCHAR uni1ECA
ENCODING 7882
SWIDTH 600 0
DWIDTH 7 0
BBX 7 10 0 -2
BITMAP
3E
08
10
10
10
20
20
F8
00
20
ENDCHAR
STARTCHAR uni1ECB
ENCODING 7883
SWIDTH 600 0
DWIDTH 7 0
BBX 5 11 0 -2
BITMAP
08
00
00
38
10
10
20
20
F8
00
20
ENDCHAR
STARTCHAR uni1ECC
ENCODING 7884
SWIDTH 600 0
DWIDTH 7 0
BBX 7 10 0 -2
BITMAP
1C
22
42
42
84
84
88
70
00
20
ENDCHAR
STARTCHAR uni1ECD
ENCODING 7885
SWIDTH 600 0
DWIDTH 7 0
BBX 6 8 0 -2
BITMAP
38
44
84
84
88
70
00
20
ENDCHAR
STARTCHAR uni1ED0
ENCODING 7888
SWIDTH 600 0
DWIDTH 7 0
BBX 7 14 0 0
BITMAP
04
08
00
04
0A
00
1C
22
42
42
84
84
88
70
ENDCHAR
STARTCHAR uni1ED1
ENCODING 7889
SWIDTH 600 0
DWIDTH 7 0
BBX 6 12 0 0
BITMAP
08
10
00
10
28
00
38
44
84
84
88
70
ENDCHAR
STARTCHAR uni1ED2
ENCODING 7890
SWIDTH 600 0
DWIDTH 7 0
BBX 7 14 0 0
BITMAP
08
04
00
04
0A
00
1C
22
42
42
84
84
88
70
ENDCHAR
STARTCHAR uni1ED3
ENCODING 7891
SWIDTH 600 0
DWIDTH 7 0
BBX 6 12 0 0
BITMAP
20
10
00
10
28
00
38
44
84
84
88
70
ENDCHAR
STARTCHAR uni1ED6
ENCODING 7894
SWIDTH 600 0
DWIDTH 7 0
BBX 7 14 0 0
BITMAP
0A
14
00
04
0A
00
1C
22
42
42
84
84
88
70
ENDCHAR
STARTCHAR uni1ED7
ENCODING 7895
SWIDTH 600 0
DWIDTH 7 0
BBX 6 12 0 0
BITMAP
14
28
00
10
28
00
38
44
84
84
88
70
ENDCHAR
STARTCHAR uni1ED8
ENCODING 7896
SWIDTH 600 0
DWIDTH 7 0
BBX 7 13 0 -2
BITMAP
08
14
00
1C
22
42
42
84
84
88
70
00
20
ENDCHAR
STARTCHAR uni1ED9
ENCODING 7897
SWIDTH 600 0
DWIDTH 7 0
BBX 6 11 0 -2
BITMAP
10
28
00
38
44
84
84
88
70
00
20
ENDCHAR
STARTCHAR uni1EDA
ENCODING 7898
SWIDTH 600 0
DWIDTH 7 0
BBX 9 11 0 0
BITMAP
0200
0400
0000
1C80
2280
4300
4200
8400
8400
8800
7000
ENDCHAR
STARTCHAR uni1EDB
ENCODING 7899
SWIDTH 600 0
DWIDTH 7 0
BBX 8 9 0 0
BITMAP
04
08
00
39
45
86
84
88
70
ENDCHAR
STARTCHAR uni1EDC
ENCODING 7900
SWIDTH 600 0
DWIDTH 7 0
BBX 9 11 0 0
BITMAP
0800
0400
0000
1C80
2280
4300
4200
8400
8400
8800
7000
ENDCHAR
STARTCHAR uni1EDD
ENCODING 7901
SWIDTH 600 0
DWIDTH 7 0
BBX 8 9 0 0
BITMAP
10
08
00
39
45
86
84
88
70
ENDCHAR
STARTCHAR uni1EE0
ENCODING 7904
SWIDTH 600 0
DWIDTH 7 0
BBX 9 11 0 0
BITMAP
0500
0A00
0000
1C80
2280
4300
4200
8400
8400
8800
7000
ENDCHAR
STARTCHAR uni1EE1
ENCODING 7905
SWIDTH 600 0
DWIDTH 7 0
BBX 8 9 0 0
BITMAP
0A
14
00
39
45
86
84
88
70
ENDCHAR
STARTCHAR uni1EE2
ENCODING 7906
SWIDTH 600 0
DWIDTH 7 0
BBX 9 10 0 -2
BITMAP
1C80
2280
4300
4200
8400
8400
8800
7000
0000
1000
ENDCHAR
STARTCHAR uni1EE3
ENCODING 7907
SWIDTH 600 0
DWIDTH 7 0
BBX 8 8 0 -2
BITMAP
39
45
86
84
88
70
00
10
ENDCHAR
STARTCHAR uni1EE4
ENCODING 7908
SWIDTH 600 0
DWIDTH 7 0
BBX 8 10 0 -2
BITMAP
77
22
44
44
44
88
88
70
00
10
ENDCHAR
STARTCHAR uni1EE5
ENCODING 7909
SWIDTH 600 0
DWIDTH 7 0
BBX 6 8 0 -2
BITMAP
CC
44
48
88
88
74
00
10
ENDCHAR
STARTCHAR uni1EE8
ENCODING 7912
SWIDTH 600 0
DWIDTH 7 0
BBX 10 11 0 0
BITMAP
0200
0400
0000
7740
2240
4480
4400
4400
8800
8800
7000
ENDCHAR
STARTCHAR uni1EE9
ENCODING 7913
SWIDTH 600 0
DWIDTH 7 0
BBX 8 9 0 0
BITMAP
04
08
00
CD
45
4A
88
88
74
ENDCHAR
STARTCHAR uni1EEA
ENCODING 7914
SWIDTH 600 0
DWIDTH 7 0
BBX 10 11 0 0
BITMAP
0800
0400
0000
7740
2240
4480
4400
4400
8800
8800
7000
ENDCHAR
STARTCHAR uni1EEB
ENCODING 7915
SWIDTH 600 0
DWIDTH 7 0
BBX 8 9 0 0
BITMAP
10
08
00
CD
45
4A
88
88
74
ENDCHAR
STARTCHAR uni1EEE
ENCODING 7918
SWIDTH 600 0
DWIDTH 7 0
BBX 10 11 0 0
BITMAP
0500
0A00
0000
7740
2240
4480
4400
4400
8800
8800
7000
ENDCHAR
STARTCHAR uni1EEF
ENCODING 7919
SWIDTH 600 0
DWIDTH 7 0
BBX 8 9 0 0
BITMAP
0A
14
00
CD
45
4A
88
88
74
ENDCHAR
STARTCHAR uni1EF0
ENCODING 7920
SWIDTH 600 0
DWIDTH 7 0
BBX 10 10 0 -2
BITMAP
7740
2240
4480
4400
4400
8800
8800
7000
0000
1000
ENDCHAR
STARTCHAR uni1EF1
ENCODING 7921
SWIDTH 600 0
DWIDTH 7 0
BBX 8 8 0 -2
BITMAP
CD
45
4A
88
88
74
00
10
ENDCHAR
STARTCHAR Ygrave
ENCODING 7922
SWIDTH 600 0
DWIDTH 7 0
BBX 8 11 0 0
BITMAP
10
08
00
E7
42
44
28
30
20
20
F0
ENDCHAR
STARTCHAR ygrave
ENCODING 7923
SWIDTH 600 0
DWIDTH 7 0
BBX 8 12 -1 -3
BITMAP
10
08
00
77
22
24
24
18
10
10
20
F0
ENDCHAR
STARTCHAR uni1EF4
ENCODING 7924
SWIDTH 600 0
DWIDTH 7 0
BBX 8 10 0 -2
BITMAP
E7
42
44
28
30
20
20
F0
00
20
ENDCHAR
STARTCHAR uni1EF5
ENCODING 7925
SWIDTH 600 0
DWIDTH 7 0
BBX 8 11 -1 -5
BITMAP
77
22
24
24
18
10
10
20
F0
00
20
ENDCHAR
STARTCHAR uni1EF8
ENCODING 7928
SWIDTH 600 0
DWIDTH 7 0
BBX 8 11 0 0
BITMAP
14
28
00
E7
42
44
28
30
20
20
F0
ENDCHAR
STARTCHAR uni1EF9
ENCODING 7929
SWIDTH 600 0
DWIDTH 7 0
BBX 8 12 -1 -3
BITMAP
0A
14
00
77
22
24
24
18
10
10
20
F0
ENDCHAR
STARTCHAR uni2000
ENCODING 8192
SWIDTH 600 0
DWIDTH 7 0
BBX 1 1 0 0
BITMAP
00
ENDCHAR
STARTCHAR uni2001
ENCODING 8193
SWIDTH 600 0
DWIDTH 7 0
BBX 1 1 0 0
BITMAP
00
ENDCHAR
STARTCHAR uni2002
ENCODING 8194
SWIDTH 600 0
DWIDTH 7 0
BBX 1 1 0 0
BITMAP
00
ENDCHAR
STARTCHAR uni2003
ENCODING 8195
SWIDTH 600 0
DWIDTH 7 0
BBX 1 1 0 0
BITMAP
00
ENDCHAR
STARTCHAR uni2004
ENCODING 8196
SWIDTH 600 0
DWIDTH 7 0
BBX 1 1 0 0
BITMAP
00
ENDCHAR
STARTCHAR uni2005
ENCODING 8197
SWIDTH 600 0
DWIDTH 7 0
BBX 1 1 0 0
BITMAP
00
ENDCHAR
STARTCHAR uni2006
ENCODING 8198
SWIDTH 600 0
DWIDTH 7 0
BBX 1 1 0 0
BITMAP
00
ENDCHAR
STARTCHAR uni2007
ENCODING 8199
SWIDTH 600 0
DWIDTH 7 0
BBX 1 1 0 0
BITMAP
00
ENDCHAR
STARTCHAR uni2008
ENCODING 8200
SWIDTH 600 0
DWIDTH 7 0
BBX 1 1 0 0
BITMAP
00
ENDCHAR
STARTCHAR uni2009
ENCODING 8201
SWIDTH 600 0
DWIDTH 7 0
BBX 1 1 0 0
BITMAP
00
ENDCHAR
STARTCHAR uni200A
ENCODING 8202
SWIDTH 600 0
DWIDTH 7 0
BBX 1 1 0 0
BITMAP
00
ENDCHAR
STARTCHAR uni2010
ENCODING 8208
SWIDTH 600 0
DWIDTH 7 0
BBX 4 1 1 3
BITMAP
F0
ENDCHAR
STARTCHAR uni2011
ENCODING 8209
SWIDTH 600 0
DWIDTH 7 0
BBX 4 1 1 3
BITMAP
F0
ENDCHAR
STARTCHAR figuredash
ENCODING 8210
SWIDTH 600 0
DWIDTH 7 0
BBX 5 1 1 3
BITMAP
F8
ENDCHAR
STARTCHAR endash
ENCODING 8211
SWIDTH 600 0
DWIDTH 7 0
BBX 5 1 1 3
BITMAP
F8
ENDCHAR
STARTCHAR emdash
ENCODING 8212
SWIDTH 600 0
DWIDTH 7 0
BBX 7 1 0 3
BITMAP
FE
ENDCHAR
STARTCHAR afii00208
ENCODING 8213
SWIDTH 600 0
DWIDTH 7 0
BBX 7 1 0 3
BITMAP
FE
ENDCHAR
STARTCHAR quoteleft
ENCODING 8216
SWIDTH 600 0
DWIDTH 7 0
BBX 2 3 3 5
BITMAP
80
80
40
ENDCHAR
STARTCHAR quoteright
ENCODING 8217
SWIDTH 600 0
DWIDTH 7 0
BBX 2 3 3 5
BITMAP
40
40
80
ENDCHAR
STARTCHAR quotesinglbase
ENCODING 8218
SWIDTH 600 0
DWIDTH 7 0
BBX 2 3 1 -1
BITMAP
40
40
80
ENDCHAR
STARTCHAR quotereversed
ENCODING 8219
SWIDTH 600 0
DWIDTH 7 0
BBX 2 3 3 5
BITMAP
80
80
40
ENDCHAR
STARTCHAR quotedblleft
ENCODING 8220
SWIDTH 600 0
DWIDTH 7 0
BBX 5 3 2 5
BITMAP
90
90
48
ENDCHAR
STARTCHAR quotedblright
ENCODING 8221
SWIDTH 600 0
DWIDTH 7 0
BBX 5 3 1 5
BITMAP
48
48
90
ENDCHAR
STARTCHAR quotedblbase
ENCODING 8222
SWIDTH 600 0
DWIDTH 7 0
BBX 5 3 0 -1
BITMAP
48
48
90
ENDCHAR
STARTCHAR uni201F
ENCODING 8223
SWIDTH 600 0
DWIDTH 7 0
BBX 5 3 1 5
BITMAP
90
90
48
ENDCHAR
STARTCHAR dagger
ENCODING 8224
SWIDTH 600 0
DWIDTH 7 0
BBX 4 10 2 -1
BITMAP
20
20
20
F0
40
40
40
80
80
80
ENDCHAR
STARTCHAR daggerdbl
ENCODING 8225
SWIDTH 600 0
DWIDTH 7 0
BBX 5 10 1 -1
BITMAP
10
10
10
78
20
20
F0
40
40
40
ENDCHAR
STARTCHAR bullet
ENCODING 8226
SWIDTH 600 0
DWIDTH 7 0
BBX 3 3 2 2
BITMAP
60
E0
C0
ENDCHAR
STARTCHAR ellipsis
ENCODING 8230
SWIDTH 600 0
DWIDTH 7 0
BBX 7 1 0 0
BITMAP
92
ENDCHAR
STARTCHAR perthousand
ENCODING 8240
SWIDTH 600 0
DWIDTH 7 0
BBX 7 8 0 0
BITMAP
60
A0
CC
30
C0
36
5A
6C
ENDCHAR
STARTCHAR guilsinglleft
ENCODING 8249
SWIDTH 600 0
DWIDTH 7 0
BBX 3 5 2 1
BITMAP
20
40
80
80
40
ENDCHAR
STARTCHAR guilsinglright
ENCODING 8250
SWIDTH 600 0
DWIDTH 7 0
BBX 3 5 2 1
BITMAP
40
20
20
40
80
ENDCHAR
STARTCHAR uni203D
ENCODING 8253
SWIDTH 600 0
DWIDTH 7 0
BBX 5 8 2 0
BITMAP
70
98
28
30
60
40
00
C0
ENDCHAR
STARTCHAR fraction
ENCODING 8260
SWIDTH 600 0
DWIDTH 7 0
BBX 8 8 -1 0
BITMAP
01
02
04
08
10
20
40
80
ENDCHAR
STARTCHAR oneinferior
ENCODING 8321
SWIDTH 600 0
DWIDTH 7 0
BBX 3 5 2 -3
BITMAP
60
20
40
40
E0
ENDCHAR
STARTCHAR twoinferior
ENCODING 8322
SWIDTH 600 0
DWIDTH 7 0
BBX 5 5 1 -3
BITMAP
70
08
30
40
F0
ENDCHAR
STARTCHAR threeinferior
ENCODING 8323
SWIDTH 600 0
DWIDTH 7 0
BBX 5 5 1 -3
BITMAP
70
08
70
10
E0
ENDCHAR
STARTCHAR uni20A5
ENCODING 8357
SWIDTH 600 0
DWIDTH 7 0
BBX 7 9 -1 -1
BITMAP
02
04
5C
2A
3A
6A
74
D6
80
ENDCHAR
STARTCHAR uni20A6
ENCODING 8358
SWIDTH 600 0
DWIDTH 7 0
BBX 9 8 -1 0
BITMAP
3380
1100
3F00
2A00
3E00
4C00
4400
E400
ENDCHAR
STARTCHAR uni20A9
ENCODING 8361
SWIDTH 600 0
DWIDTH 7 0
BBX 9 8 0 0
BITMAP
F380
4100
5F00
4A00
7E00
5400
6800
4800
ENDCHAR
STARTCHAR Euro
ENCODING 8364
SWIDTH 600 0
DWIDTH 7 0
BBX 9 8 -2 0
BITMAP
0780
0880
7C00
1000
F800
2000
2300
1C00
ENDCHAR
STARTCHAR uni20AD
ENCODING 8365
SWIDTH 600 0
DWIDTH 7 0
BBX 8 8 -1 0
BITMAP
3B
12
2C
FF
38
48
44
E6
ENDCHAR
STARTCHAR trademark
ENCODING 8482
SWIDTH 600 0
DWIDTH 7 0
BBX 7 4 1 4
BITMAP
F2
5E
B4
A4
ENDCHAR
STARTCHAR uni212A
ENCODING 8490
SWIDTH 600 0
DWIDTH 7 0
BBX 8 8 -1 0
BITMAP
3B
12
2C
30
38
48
44
E6
ENDCHAR
STARTCHAR uni212B
ENCODING 8491
SWIDTH 600 0
DWIDTH 7 0
BBX 8 11 -1 0
BITMAP
02
05
02
1E
06
0A
12
1E
22
42
E7
ENDCHAR
STARTCHAR uni2132
ENCODING 8498
SWIDTH 600 0
DWIDTH 7 0
BBX 8 8 0 0
BITMAP
0F
02
02
14
1C
24
88
FC
ENDCHAR
STARTCHAR minus
ENCODING 8722
SWIDTH 600 0
DWIDTH 7 0
BBX 4 1 1 3
BITMAP
F0
ENDCHAR
STARTCHAR fraction
ENCODING 8725
SWIDTH 600 0
DWIDTH 7 0
BBX 8 8 -1 0
BITMAP
01
02
04
08
10
20
40
80
ENDCHAR
STARTCHAR periodcentered
ENCODING 8729
SWIDTH 600 0
DWIDTH 7 0
BBX 1 1 2 3
BITMAP
80
ENDCHAR
STARTCHAR uni2236
ENCODING 8758
SWIDTH 600 0
DWIDTH 7 0
BBX 2 5 2 0
BITMAP
40
00
00
00
80
ENDCHAR
STARTCHAR uni2259
ENCODING 8793
SWIDTH 600 0
DWIDTH 7 0
BBX 6 6 0 2
BITMAP
10
28
00
7C
00
F8
ENDCHAR
STARTCHAR uni225A
ENCODING 8794
SWIDTH 600 0
DWIDTH 7 0
BBX 6 6 0 2
BITMAP
28
10
00
7C
00
F8
ENDCHAR
STARTCHAR notequal
ENCODING 8800
SWIDTH 600 0
DWIDTH 7 0
BBX 7 9 0 -1
BITMAP
02
04
08
7C
10
F8
20
40
80
ENDCHAR
STARTCHAR equivalence
ENCODING 8801
SWIDTH 600 0
DWIDTH 7 0
BBX 6 5 0 1
BITMAP
FC
00
FC
00
FC
ENDCHAR
STARTCHAR uni2262
ENCODING 8802
SWIDTH 600 0
DWIDTH 7 0
BBX 7 9 0 -1
BITMAP
02
04
FC
08
FC
20
FC
40
80
ENDCHAR
STARTCHAR lessequal
ENCODING 8804
SWIDTH 600 0
DWIDTH 7 0
BBX 4 9 1 -2
BITMAP
10
20
40
80
80
40
20
00
F0
ENDCHAR
STARTCHAR greaterequal
ENCODING 8805
SWIDTH 600 0
DWIDTH 7 0
BBX 4 9 1 -2
BITMAP
40
20
10
10
20
40
80
00
F0
ENDCHAR
STARTCHAR uni226E
ENCODING 8814
SWIDTH 600 0
DWIDTH 7 0
BBX 7 9 0 -1
BITMAP
02
0C
18
28
50
60
20
50
80
ENDCHAR
STARTCHAR uni226F
ENCODING 8815
SWIDTH 600 0
DWIDTH 7 0
BBX 7 9 0 -1
BITMAP
02
24
18
08
18
30
20
40
80
ENDCHAR
STARTCHAR uni2270
ENCODING 8816
SWIDTH 600 0
DWIDTH 7 0
BBX 7 9 0 -2
BITMAP
0A
14
28
48
50
20
30
40
F8
ENDCHAR
STARTCHAR uni2271
ENCODING 8817
SWIDTH 600 0
DWIDTH 7 0
BBX 7 9 0 -2
BITMAP
22
14
08
08
10
20
60
40
F8
ENDCHAR
STARTCHAR fi
ENCODING -1
SWIDTH 600 0
DWIDTH 7 0
BBX 8 8 -1 0
BITMAP
0D
10
7F
22
22
44
44
EE
ENDCHAR
STARTCHAR fl
ENCODING -1
SWIDTH 600 0
DWIDTH 7 0
BBX 8 8 -1 0
BITMAP
0F
11
7A
22
22
44
44
EE
ENDCHAR
ENDFONT
